<svg width="35" height="35" viewBox="0 0 35 35" fill="none" xmlns="http://www.w3.org/2000/svg">
<path d="M32.4 28H24.6C23.1641 28 22 28.6268 22 29.4V33.6C22 34.3732 23.1641 35 24.6 35H32.4C33.8359 35 35 34.3732 35 33.6V29.4C35 28.6268 33.8359 28 32.4 28Z" fill="#C1C1C1"/>
<path d="M10.4 28H2.6C1.16406 28 0 28.6268 0 29.4V33.6C0 34.3732 1.16406 35 2.6 35H10.4C11.8359 35 13 34.3732 13 33.6V29.4C13 28.6268 11.8359 28 10.4 28Z" fill="#C1C1C1"/>
<path d="M32.4 14H24.6C23.1641 14 22 14.6268 22 15.4V19.6C22 20.3732 23.1641 21 24.6 21H32.4C33.8359 21 35 20.3732 35 19.6V15.4C35 14.6268 33.8359 14 32.4 14Z" fill="#C1C1C1"/>
<path d="M10.4 14H2.6C1.16406 14 0 14.6268 0 15.4V19.6C0 20.3732 1.16406 21 2.6 21H10.4C11.8359 21 13 20.3732 13 19.6V15.4C13 14.6268 11.8359 14 10.4 14Z" fill="#C1C1C1"/>
<path d="M32.4 0H24.6C23.1641 0 22 0.626801 22 1.4V5.6C22 6.3732 23.1641 7 24.6 7H32.4C33.8359 7 35 6.3732 35 5.6V1.4C35 0.626801 33.8359 0 32.4 0Z" fill="#C1C1C1"/>
<path d="M10.4 0H2.6C1.16406 0 0 0.626801 0 1.4V5.6C0 6.3732 1.16406 7 2.6 7H10.4C11.8359 7 13 6.3732 13 5.6V1.4C13 0.626801 11.8359 0 10.4 0Z" fill="#C1C1C1"/>
</svg>
