<svg width="80" height="31" viewBox="0 0 80 31" fill="none" xmlns="http://www.w3.org/2000/svg">
<g opacity="0.5" clip-path="url(#clip0_81_46)">
<path d="M15.2258 30.3373C6.90676 30.3373 0.138611 23.5637 0.138611 15.2386C0.138611 6.91262 6.90676 0.139267 15.2258 0.139267C23.5445 0.139267 30.3124 6.9129 30.3124 15.2386C30.3124 23.5637 23.5445 30.3373 15.2258 30.3373Z" fill="white"/>
<path d="M15.2258 0.277967C23.4811 0.277967 30.1738 6.97586 30.1738 15.2386C30.1738 23.5013 23.4811 30.1989 15.2258 30.1989C6.97005 30.1989 0.277338 23.501 0.277338 15.2386C0.277338 6.97613 6.97005 0.277967 15.2258 0.277967ZM15.2258 0.000518799C6.83027 0.000518799 0 6.8363 0 15.2386C0 23.6411 6.83027 30.4763 15.2258 30.4763C23.6211 30.4763 30.4511 23.6403 30.4511 15.2386C30.4511 6.8363 23.6211 0.000518799 15.2258 0.000518799Z" fill="#004883"/>
<path d="M79.7198 9.10211C79.8876 8.90623 79.9999 8.68288 79.9999 8.40294C80.002 8.12506 79.9024 7.85603 79.7198 7.64661C79.5232 7.45018 79.2728 7.33809 78.9918 7.33809C78.7128 7.33809 78.4893 7.45046 78.2644 7.64661C78.0694 7.84277 77.9843 8.09469 77.9843 8.40294C77.9843 8.68288 78.0694 8.90623 78.2644 9.10211C78.4893 9.29826 78.7128 9.38205 78.9918 9.38205C79.2728 9.38205 79.5232 9.29826 79.7198 9.10211ZM79.7767 19.4063V10.3623H78.2646L78.2932 19.4063H79.7767ZM76.2772 10.8106L76.026 10.6983C75.354 10.306 74.5419 10.1104 73.5629 10.1104C72.4991 10.1104 71.6316 10.362 70.9879 10.8661C70.652 11.1183 70.4279 11.37 70.2601 11.7065C70.0926 12.0142 70.0077 12.3222 70.0077 12.6859C70.0077 13.3021 70.2884 13.806 70.7926 14.2538C71.2677 14.6741 71.9671 15.0101 72.8909 15.2898C73.6742 15.5417 74.2061 15.7939 74.5419 16.0461C74.8223 16.3263 74.9904 16.634 74.9904 17.0258C74.9904 17.4458 74.7663 17.7818 74.3739 18.062C73.9817 18.2862 73.4215 18.4261 72.7229 18.4261C71.9666 18.4261 71.2117 18.2299 70.4279 17.8653L70.2318 17.726L69.5881 18.9016L69.8128 19.0137C70.68 19.4337 71.6321 19.6293 72.6674 19.6293C73.787 19.6293 74.7106 19.4054 75.438 18.9016C75.8019 18.6774 76.054 18.37 76.2501 18.0623C76.445 17.6983 76.5296 17.3057 76.5296 16.914V16.8851C76.5296 16.2134 76.2501 15.6252 75.7181 15.1497C75.2708 14.7582 74.5428 14.4216 73.5909 14.142C72.8629 13.8889 72.3316 13.6373 72.0234 13.4414C71.6876 13.1889 71.5478 12.9095 71.5478 12.6016C71.5478 12.2373 71.6876 11.9579 71.9963 11.706C72.3316 11.4815 72.7786 11.3414 73.3669 11.3414C74.1786 11.3414 74.8503 11.4815 75.3823 11.8175L75.5784 11.9576L76.2772 10.8106ZM67.1537 11.4823C66.1181 10.5865 64.831 10.1106 63.3467 10.1106C61.8915 10.1106 60.6881 10.5582 59.7088 11.4263C58.6167 12.4068 58.0576 13.7502 58.0576 15.5142V22.542H59.5122V18.0063C59.9604 18.5098 60.5209 18.9022 61.192 19.1827C61.8637 19.4901 62.5912 19.6299 63.3755 19.6299C64.8587 19.6299 66.1181 19.1827 67.1537 18.2296C68.2175 17.3057 68.7484 16.1862 68.7484 14.8697C68.7484 13.526 68.2175 12.4065 67.1537 11.4823ZM63.3467 11.37C64.4388 11.37 65.3898 11.7065 66.1173 12.3779C66.8736 13.0499 67.2654 13.8895 67.2654 14.8986C67.2654 15.8497 66.929 16.6337 66.2576 17.3057C65.5301 18.0057 64.5506 18.37 63.3752 18.37C62.1988 18.37 61.2469 18.006 60.4917 17.3057C59.7926 16.6063 59.457 15.8222 59.457 14.8986C59.457 13.9738 59.7929 13.1623 60.4917 12.4898C61.22 11.7623 62.1719 11.37 63.3467 11.37ZM55.734 11.9307C54.7553 10.6983 53.3556 10.1104 51.4799 10.1104C50.0805 10.1104 48.8763 10.5024 47.8413 11.342C46.7222 12.2101 46.1625 13.3865 46.1625 14.8422C46.1625 15.6541 46.3861 16.4662 46.8617 17.2219C47.2822 17.9497 47.9256 18.5381 48.7934 18.9857C49.6606 19.406 50.5841 19.6016 51.5917 19.6016C52.5435 19.6016 53.4388 19.406 54.3071 18.9857C55.1738 18.5381 55.8178 17.9497 56.2377 17.2219L56.5178 16.7458H54.8948C54.5584 17.2219 54.0819 17.6142 53.4673 17.9219C52.8516 18.2296 52.1799 18.37 51.536 18.37C50.6404 18.37 49.8847 18.1453 49.2127 17.6975C48.541 17.2216 48.0936 16.6337 47.8135 15.8497C48.7365 15.4856 49.6606 15.2895 50.6687 15.2895L52.1799 15.4571L54.5306 15.6815C55.2581 15.6815 55.8749 15.5694 56.4337 15.4019C56.6581 15.3175 56.7976 15.2054 56.8542 15.0653C56.9377 14.9535 56.9377 14.7582 56.8825 14.5332C56.7136 13.526 56.35 12.6584 55.734 11.9307ZM55.343 14.2271L55.3707 14.2826L54.5587 14.3944L52.7956 14.2269L50.3326 14.0302H49.9127C49.1289 14.0862 48.4015 14.2269 47.7015 14.4782C47.813 13.442 48.3175 12.6296 49.1572 12.0422C49.8564 11.5936 50.6407 11.342 51.4799 11.342C52.7948 11.342 53.8029 11.762 54.5587 12.6021C54.9508 13.1065 55.2301 13.6381 55.343 14.2271ZM39.6407 10.1104C38.2132 10.1104 36.9818 10.5579 36.0023 11.426C34.9107 12.4065 34.3787 13.7499 34.3787 15.5137L34.351 22.5414H35.8625L35.8342 18.0057C36.2821 18.5096 36.8418 18.9016 37.4858 19.1821C38.1852 19.4898 38.9132 19.6291 39.6967 19.6291C41.1802 19.6291 42.4396 19.1821 43.4754 18.2293C44.5387 17.3054 45.0424 16.1854 45.0424 14.8692C45.0424 13.5252 44.5387 12.4057 43.5029 11.4815C42.4396 10.5862 41.1802 10.1104 39.6407 10.1104ZM36.786 12.49C37.5418 11.7623 38.4656 11.37 39.6407 11.37C40.7606 11.37 41.6841 11.7065 42.439 12.3779C43.1956 13.0499 43.5586 13.8895 43.5586 14.8986C43.5586 15.8497 43.2233 16.6337 42.5788 17.3057C41.8519 18.0057 40.9001 18.37 39.6687 18.37C38.5211 18.37 37.5418 18.006 36.7858 17.3057C36.114 16.6063 35.7782 15.8222 35.7782 14.8986C35.7785 13.9741 36.114 13.1626 36.786 12.49Z" fill="#004883"/>
<path d="M23.7734 3.90217C23.6449 3.80486 23.523 3.69921 23.4084 3.58588C21.0143 1.89656 18.1555 0.991656 15.2258 0.995895C7.3669 0.995895 0.995894 7.37222 0.995894 15.2379C0.99155 18.303 1.97942 21.2871 3.8117 23.7436C8.57359 22.337 12.7281 19.8896 16.2886 16.3524C19.8446 12.8321 22.3434 8.66569 23.7734 3.90217Z" fill="#E32934"/>
<path d="M15.2258 29.48C23.0841 29.48 29.4551 23.1028 29.4551 15.2377C29.4551 12.4535 28.6564 9.8574 27.2769 7.66417C27.2407 7.628 27.2082 7.58832 27.1799 7.5457C27.4694 8.50159 27.616 9.49506 27.615 10.4939C27.615 12.11 27.2417 13.6396 26.5084 15.0718C25.7833 16.4319 24.7639 17.613 23.5245 18.5291C22.53 19.2629 21.3364 19.885 19.9311 20.3949C18.8126 20.8044 17.3577 21.2278 15.5553 21.6376L10.3579 22.8076C8.1484 23.3142 6.13603 23.8564 4.34332 24.4115C6.95335 27.5115 10.8594 29.48 15.2258 29.48Z" fill="#004883"/>
</g>
<defs>
<clipPath id="clip0_81_46">
<rect width="80" height="30.4762" fill="white"/>
</clipPath>
</defs>
</svg>
