<svg width="36" height="34" viewBox="0 0 36 34" fill="none" xmlns="http://www.w3.org/2000/svg">
<path d="M6.04444 26.4445H1.51111C0.676547 26.4445 0 27.121 0 27.9556V32.4889C0 33.3235 0.676547 34 1.51111 34H6.04444C6.87901 34 7.55556 33.3235 7.55556 32.4889V27.9556C7.55556 27.121 6.87901 26.4445 6.04444 26.4445Z" fill="#63A60E"/>
<path d="M20.2111 26.4445H15.6778C14.8432 26.4445 14.1667 27.121 14.1667 27.9556V32.4889C14.1667 33.3235 14.8432 34 15.6778 34H20.2111C21.0457 34 21.7222 33.3235 21.7222 32.4889V27.9556C21.7222 27.121 21.0457 26.4445 20.2111 26.4445Z" fill="#63A60E"/>
<path d="M34.3778 26.4445H29.8444C29.0099 26.4445 28.3333 27.121 28.3333 27.9556V32.4889C28.3333 33.3235 29.0099 34 29.8444 34H34.3778C35.2123 34 35.8889 33.3235 35.8889 32.4889V27.9556C35.8889 27.121 35.2123 26.4445 34.3778 26.4445Z" fill="#63A60E"/>
<path d="M6.04444 13.2222H1.51111C0.676547 13.2222 0 13.8987 0 14.7333V19.2666C0 20.1012 0.676547 20.7777 1.51111 20.7777H6.04444C6.87901 20.7777 7.55556 20.1012 7.55556 19.2666V14.7333C7.55556 13.8987 6.87901 13.2222 6.04444 13.2222Z" fill="#63A60E"/>
<path d="M20.2111 13.2222H15.6778C14.8432 13.2222 14.1667 13.8987 14.1667 14.7333V19.2666C14.1667 20.1012 14.8432 20.7777 15.6778 20.7777H20.2111C21.0457 20.7777 21.7222 20.1012 21.7222 19.2666V14.7333C21.7222 13.8987 21.0457 13.2222 20.2111 13.2222Z" fill="#63A60E"/>
<path d="M34.3778 13.2222H29.8444C29.0099 13.2222 28.3333 13.8987 28.3333 14.7333V19.2666C28.3333 20.1012 29.0099 20.7777 29.8444 20.7777H34.3778C35.2123 20.7777 35.8889 20.1012 35.8889 19.2666V14.7333C35.8889 13.8987 35.2123 13.2222 34.3778 13.2222Z" fill="#63A60E"/>
<path d="M6.04444 0H1.51111C0.676547 0 0 0.676547 0 1.51111V6.04444C0 6.87901 0.676547 7.55556 1.51111 7.55556H6.04444C6.87901 7.55556 7.55556 6.87901 7.55556 6.04444V1.51111C7.55556 0.676547 6.87901 0 6.04444 0Z" fill="#63A60E"/>
<path d="M20.2111 0H15.6778C14.8432 0 14.1667 0.676547 14.1667 1.51111V6.04444C14.1667 6.87901 14.8432 7.55556 15.6778 7.55556H20.2111C21.0457 7.55556 21.7222 6.87901 21.7222 6.04444V1.51111C21.7222 0.676547 21.0457 0 20.2111 0Z" fill="#63A60E"/>
<path d="M34.3778 0H29.8444C29.0099 0 28.3333 0.676547 28.3333 1.51111V6.04444C28.3333 6.87901 29.0099 7.55556 29.8444 7.55556H34.3778C35.2123 7.55556 35.8889 6.87901 35.8889 6.04444V1.51111C35.8889 0.676547 35.2123 0 34.3778 0Z" fill="#63A60E"/>
</svg>
