<svg width="80" height="27" viewBox="0 0 80 27" fill="none" xmlns="http://www.w3.org/2000/svg">
<g opacity="0.5">
<path d="M30.7208 22.851C27.744 20.9334 23.7041 20.5969 17.1889 22.4045C10.2432 24.0367 7.92742 25.083 4.88612 22.9826C3.71772 21.9508 3.29882 20.2895 3.61162 17.8965C4.33712 13.9955 6.29772 10.2414 9.78032 6.07717C11.7241 3.91097 13.5273 2.05197 15.9082 1.30547C17.733 0.837172 17.5624 2.27127 17.3416 2.47637C17.1086 2.47637 16.7172 2.51307 16.4147 2.71047C16.1692 2.90087 15.4953 3.51567 15.4591 4.34267C15.4069 5.60867 16.717 5.34517 17.2821 4.65007C17.8912 3.86677 18.7914 2.36677 18.0833 0.968772C17.7865 0.471172 17.2737 0.127272 16.637 0.010172C14.4568 -0.114428 12.4264 0.924872 10.5524 2.07387C6.45422 4.92077 3.17592 8.86557 1.32092 13.1836C0.251523 15.7889 -0.715677 19.5209 0.734023 22.5584C1.85562 24.666 4.18392 25.7855 6.96182 25.5514C8.91012 25.3467 11.266 24.717 12.8505 24.3368C14.4351 23.9559 22.5459 21.1679 25.2109 26.0204C25.2109 26.0204 26.0971 24.3001 28.3118 24.2634C30.1326 24.0954 32.7594 24.7905 34.6722 26.1954C34.0349 25.237 32.2281 23.8245 30.7208 22.851Z" fill="#E61A27"/>
<path d="M18.0159 6.56742C16.4989 5.57212 13.4499 7.47492 11.0078 10.7388C8.77458 13.6665 7.81028 17.0692 8.85978 18.6427C10.4208 20.4942 13.3189 17.8011 14.5513 16.3596L14.7103 16.1911C15.5484 15.2909 16.1958 14.2077 16.8226 13.1683C16.8226 13.1683 17.3986 12.2169 17.4261 12.1729C17.7821 12.1073 18.2109 12.0048 18.6941 11.8657C18.6872 11.8875 16.8454 14.9833 17.0333 16.5199C17.0918 16.9887 17.0472 18.7012 18.7191 19.2207C20.9475 19.5942 22.7269 17.8668 24.2967 16.3299C24.2967 16.3299 24.5642 16.074 24.7155 15.9279C24.6772 16.0811 24.6273 16.2856 24.6273 16.2856C23.9749 18.5544 24.8543 19.0305 25.4044 19.2061C27.0669 19.6895 29.053 17.2742 29.0595 17.2742C29.0079 18.035 28.8574 18.6643 29.6594 19.1694C30.4163 19.4404 31.1824 19.0272 31.7648 18.6393C33.8623 17.1611 35.5521 14.8473 36.9169 12.8474H36.0463C36.036 12.8474 33.8981 15.9462 32.5098 16.6197C32.5076 16.6197 32.2549 16.7494 32.1094 16.6468C31.9291 16.4931 32.0002 16.1734 32.1115 15.947C32.1185 15.9323 37.4719 6.64742 37.4719 6.64742H34.9443C34.9443 6.64742 34.6682 7.09412 34.6457 7.12342C34.6287 7.10882 34.5882 7.03202 34.5602 6.99522C32.9942 4.82902 29.4479 8.16102 26.778 12.025C25.7501 13.5108 24.4414 15.1837 23.0844 16.3912C23.0844 16.3912 21.074 18.234 20.2151 16.91C19.9011 16.3537 19.9977 15.5404 20.1748 15.0063C21.1749 12.1593 22.8982 9.57562 24.8593 8.01672C25.4128 7.58522 26.0146 7.46042 26.3131 7.64342C26.5977 7.81202 26.6436 8.22882 26.4636 8.51432C26.0069 8.49972 25.6409 8.63852 25.3435 8.94592C24.7575 9.56072 24.5539 10.1536 24.7402 10.7099C25.6453 11.9979 27.4504 9.45102 27.3631 7.89952C27.3319 7.34322 27.0352 6.81642 26.5922 6.56002C25.9321 6.16502 24.9251 6.26732 24.2734 6.58222C23.4009 6.91142 22.02 8.06032 21.2139 8.95332C20.1991 10.0732 18.4586 11.3172 17.9144 11.1779C18.0923 10.7021 19.5624 7.69432 18.0159 6.56742ZM30.202 11.017C30.6937 10.3365 32.1248 8.51412 32.4737 8.20682C33.6471 7.17452 34.1161 7.62872 34.1567 7.95052C33.0616 9.91182 31.7691 12.1587 30.5539 14.1787C30.5564 14.1715 30.1736 14.7568 30.1736 14.7568C29.6369 15.5762 29.0965 16.2789 28.215 16.7691C28.0893 16.806 27.8821 16.8207 27.7442 16.7178C27.5782 16.608 27.5127 16.425 27.5314 16.2347C27.5843 15.6055 28.2249 13.6811 30.202 11.017ZM16.4515 12.1952C16.4515 12.1952 16.4294 12.2613 16.4186 12.2829C16.4158 12.2829 15.3165 14.0757 15.3165 14.0757C14.6531 14.9614 13.8248 16.0741 12.7894 16.6081C12.4825 16.7105 12.0582 16.7766 11.842 16.506C11.3837 15.957 11.6199 15.1958 11.8118 14.5812L11.8798 14.3616C12.43 12.8688 13.3029 11.5512 14.1527 10.329C14.1633 10.3218 14.1871 10.3145 14.1957 10.3145C14.1978 10.3218 14.2012 10.3218 14.2026 10.3365C14.7358 11.3609 15.7356 11.8364 16.4833 12.0563C16.4878 12.0563 16.4927 12.0636 16.4927 12.0783C16.4928 12.1001 16.4806 12.1296 16.4515 12.1952ZM17.4929 10.0804C17.488 10.095 17.0033 11.2074 17.0033 11.2074C16.9332 11.2659 16.8224 11.2367 16.6954 11.2074L16.4778 11.1706C15.7945 10.9585 15.2791 10.5047 15.1202 9.96322C14.9011 8.90932 15.8014 8.08232 16.198 7.78242C16.5786 7.51872 17.1703 7.37972 17.5139 7.65062C17.7258 7.89952 17.8061 8.22142 17.8061 8.57292C17.8062 9.04842 17.6594 9.58262 17.4929 10.0804ZM49.4469 13.4759C49.2031 12.9491 48.6246 12.6124 48.008 12.6489C46.0057 12.832 44.0472 14.4786 43.0188 16.8423C42.4792 18.0573 42.1847 19.0598 41.9916 20.6552C42.6143 19.9382 43.8843 18.76 45.3255 18.1159C45.3255 18.1159 45.5216 16.5864 46.5216 15.2251C46.9 14.6614 47.6572 13.754 48.5075 13.9954C49.2505 14.2443 48.9893 16.3009 48.0019 18.2911C47.2713 19.755 46.1533 21.2191 45.0221 22.2288C44.022 23.0777 42.5423 24.1023 41.2477 23.312C40.4323 22.8292 40.0164 21.8189 40.1042 20.5163C40.4938 16.8206 42.1762 13.6736 44.5837 10.0876C47.0661 6.75772 49.8025 3.34002 53.4888 1.51742C54.2407 1.13692 54.937 1.04912 55.5389 1.28332C55.5389 1.28332 52.0785 3.18612 50.429 6.70642C50.0094 7.59942 49.4258 8.80662 50.0135 9.87522C50.3206 10.4313 50.8658 10.4753 51.3049 10.446C53.3268 9.97752 54.6331 8.08942 55.7004 6.36242C56.3192 5.05242 56.8692 3.74972 56.8692 2.30062C56.8692 2.12502 56.8601 1.89092 56.8453 1.71512C57.8112 1.20302 59.7921 2.11032 59.7921 2.11032C61.34 2.62282 64.6359 5.14782 65.7477 5.63062C66.29 5.00132 67.1812 4.05002 67.6831 3.57422L66.9566 3.12772C65.7936 2.41782 64.5643 1.74442 63.3544 1.07852C60.6065 -0.421577 58.3697 0.105223 57.2314 0.515123C56.784 0.676023 56.3752 0.815123 56.3752 0.815123C55.5304 -0.106977 54.1448 -0.0193766 53.1239 0.229623C49.4525 1.28342 46.0438 3.85212 42.3893 8.30922C39.7025 11.8002 38.0359 14.8155 37.1476 17.794C36.4629 19.7992 36.2548 22.7485 37.926 24.4977C39.3469 25.983 41.231 25.6612 42.5614 25.1272C45.4441 23.7074 48.035 20.6481 49.326 17.1278C49.6376 16.0814 49.9833 14.6031 49.4469 13.4759ZM56.0756 2.44712C55.694 6.82362 52.2921 9.39262 51.4503 9.59722C50.9402 9.69952 50.0698 9.47282 50.8469 7.63612C51.9911 5.16222 53.9448 3.06202 56.0408 1.98612C56.0919 2.16912 56.0905 2.28592 56.0756 2.44712ZM76.2554 3.00312C74.4255 4.04252 72.5285 4.71562 70.2323 4.48152C69.596 5.19892 68.9763 5.93802 68.4052 6.69902C71.6281 7.51872 75.0448 5.69642 76.9504 3.96212C78.9663 2.21292 79.9999 0.0102234 79.9999 0.0102234C79.9999 0.0102234 78.4889 1.73722 76.2554 3.00312ZM41.6728 6.64762H39.2724L37.9184 8.84762H40.3183L41.6728 6.64762Z" fill="#E61A27"/>
<path d="M70.2227 23.0546C69.9646 23.2302 69.602 23.0952 69.7375 22.6928C70.0753 21.6682 71.4178 19.5802 71.4178 19.5802L75.1574 12.9476H72.5959C72.4741 13.1476 72.2138 13.6068 72.2138 13.6068C72.0953 13.4094 71.7409 12.9705 71.595 12.8756C70.9692 12.4801 70.0512 12.6671 69.4178 13.0256C66.6639 14.6359 64.6546 17.8174 63.0699 20.2985C63.0699 20.2985 61.4018 23.0565 60.4759 23.2616C59.753 23.3202 59.8276 22.3464 59.8589 22.1195C60.1384 20.4799 60.7875 18.9212 61.4414 17.5087C62.7716 16.5866 64.2895 15.3791 65.669 14.0545C68.6628 11.1927 71.1866 7.95062 71.5555 7.22612C71.5555 7.22612 71.1562 7.30672 70.6847 7.32122C68.3816 10.534 63.6684 15.2034 62.2395 15.8985C62.8725 14.3759 66.9623 7.10892 70.4425 3.63272L70.9901 3.10562C71.837 2.27862 72.7144 1.42972 73.3982 1.29062C73.4704 1.28332 73.5634 1.29062 73.6437 1.45922C73.6742 2.10312 73.4345 2.57892 73.1595 3.12042L72.7741 3.91092C72.7741 3.91092 73.32 3.80842 73.6786 3.69102C74.0945 2.90832 74.5553 2.02982 74.3854 0.983522C74.3288 0.646822 74.085 0.390722 73.7665 0.332122C72.7283 0.134522 71.5969 0.902722 70.6865 1.52502L70.6498 1.54682C65.9696 5.21342 62.0177 10.4974 58.5626 17.7135C58.3122 17.9035 57.3447 18.1306 57.1803 18.0207C57.5215 17.3183 57.9511 16.374 58.166 15.3494C58.2032 15.0565 58.2378 14.7567 58.2378 14.464C58.2378 13.8341 58.0866 13.2415 57.5224 12.8319C56.8608 12.5025 56.0431 12.6563 55.4917 12.9049C53.022 13.9295 51.1761 16.4619 49.844 18.5474C49.1276 19.8724 48.4133 21.2915 48.2155 22.9165C48.0762 24.1897 48.3598 25.0095 49.0838 25.4194C49.8282 25.7997 50.7652 25.4044 51.1333 25.2143C53.6354 23.8969 55.3837 21.2551 56.7617 18.8399C56.8165 18.8327 57.5689 18.8109 58.1381 18.6643C58.1456 18.6643 58.1488 18.6643 58.1614 18.6719C58.1288 18.7813 57.8347 19.6598 57.8347 19.6598C56.9613 22.221 56.5574 23.963 57.3824 24.9948C58.5613 26.4512 60.513 24.9438 62.1007 22.9528C61.7599 25.3385 62.9963 25.712 63.9389 25.5292C65.0216 25.2366 66.2281 24.08 66.788 23.4874C66.6082 24.1825 66.657 25.4269 67.642 25.5511C68.317 25.6759 68.8223 25.3087 69.4068 24.9939C71.5036 23.8521 74.0137 20.0474 74.6654 18.9474H73.8109C72.8844 20.3477 71.7055 22.1833 70.2227 23.0546ZM51.401 22.7998C51.268 22.6021 51.2239 22.3861 51.2195 22.1525C51.194 20.7174 52.738 18.1476 53.8277 16.7476H53.83C54.2866 17.7476 55.3208 18.3904 55.9451 18.6613C55.1698 20.3886 52.5105 24.0878 51.401 22.7998ZM56.3828 17.8891C56.309 17.9407 55.0049 17.5013 54.7528 16.2938C54.539 15.2542 55.2549 14.4419 55.9475 14.0325C56.2448 13.7981 56.6926 13.7179 57.0211 13.8345C57.326 14.0398 57.4086 14.406 57.4086 14.8005C57.4086 15.0425 57.3765 15.2911 57.3482 15.5179L57.342 15.5693C57.1235 16.3807 56.8011 17.1604 56.3828 17.8891ZM66.8424 22.3388C66.8413 22.3388 66.5949 22.5583 66.5949 22.5583C66.2431 22.8729 65.8811 23.2095 65.4441 23.0411C65.3234 22.9973 65.2385 22.8364 65.2181 22.7116C65.1982 21.8114 65.6035 20.9773 65.9967 20.165L66.0975 19.9527C67.2283 18.0646 68.5427 15.8398 70.4731 14.2958C70.7983 14.0611 71.1513 13.8639 71.5239 14.0177C71.6096 14.0981 71.7094 14.2372 71.7094 14.3761C71.7094 14.4202 71.6702 14.5372 71.6477 14.5737C71.1085 15.445 70.5952 16.3596 70.0959 17.2378C69.1201 18.9723 68.1078 20.765 66.8424 22.3388Z" fill="#E61A27"/>
</g>
</svg>
