<svg width="32" height="22" viewBox="0 0 32 22" fill="none" xmlns="http://www.w3.org/2000/svg">
<path d="M31.9173 13.3484L30.2976 10.8701C29.5823 9.77492 28.3671 9.12098 27.0461 9.12098H22.8571V6.71038C22.8571 5.23856 21.6602 4.04169 20.1884 4.04169H12.3465C11.9065 1.74357 9.88363 0 7.45908 0C4.71366 0 2.48035 2.2336 2.48035 4.97872C2.48035 6.70486 3.3642 8.22754 4.70232 9.12098H0.508045C0.227283 9.12098 0 9.34826 0 9.62902C0 9.90978 0.227283 10.1371 0.508045 10.1371H5.58733V11.1529H3.55544C3.27497 11.1529 3.04769 11.3801 3.04769 11.6609C3.04769 11.9417 3.27497 12.1687 3.55544 12.1687H5.58733V13.1845H0.508045C0.227283 13.1845 0 13.4117 0 13.6925C0 13.9733 0.227283 14.2006 0.508045 14.2006H5.58733V16.4501C4.69186 16.8451 4.06349 17.7386 4.06349 18.7785V19.2798C4.06349 19.5606 4.29106 19.7879 4.57153 19.7879H9.07651C9.36541 21.0307 10.4797 21.9607 11.8094 21.9607C13.1394 21.9607 14.2535 21.0307 14.5424 19.7879H24.3147C24.6038 21.0307 25.7182 21.9607 27.0476 21.9607C28.377 21.9607 29.4916 21.0307 29.7805 19.7879H31.4921C31.7729 19.7879 31.9999 19.5606 31.9999 19.2798V13.6262C31.9999 13.5274 31.9711 13.4306 31.9173 13.3484ZM3.49615 4.97872C3.49615 2.79367 5.27402 1.0158 7.45908 1.0158C9.64443 1.0158 11.422 2.79367 11.422 4.97872C11.422 7.16378 9.64443 8.94165 7.45908 8.94165C5.27402 8.94165 3.49615 7.16378 3.49615 4.97872ZM6.60313 14.2006H7.61893C7.89969 14.2006 8.12698 13.9733 8.12698 13.6925C8.12698 13.4117 7.89969 13.1845 7.61893 13.1845H6.60313V12.1687H10.1589C10.4393 12.1687 10.6666 11.9417 10.6666 11.6609C10.6666 11.3801 10.4393 11.1529 10.1589 11.1529H6.60313V10.1371H13.2063C13.4867 10.1371 13.7143 9.90978 13.7143 9.62902C13.7143 9.34826 13.4867 9.12098 13.2063 9.12098H10.2158C11.5333 8.2412 12.4073 6.75078 12.434 5.05749H20.1887C21.0999 5.05749 21.8413 5.79921 21.8413 6.71038V16.2322H6.60953C6.60749 16.2322 6.60546 16.2327 6.60313 16.2327V14.2006ZM21.8413 18.7718H14.5886C14.5086 18.1876 14.2494 17.661 13.8666 17.248H21.8413V18.7718ZM6.60953 17.248H9.75225C9.36977 17.661 9.11022 18.1876 9.03059 18.7718H5.07929C5.08277 17.9313 5.76811 17.248 6.60953 17.248ZM11.8094 20.9449C10.8215 20.9449 10.0173 20.141 10.0173 19.1528C10.0173 18.1649 10.8215 17.3607 11.8094 17.3607C12.7976 17.3607 13.6015 18.1649 13.6015 19.1528C13.6015 20.141 12.7976 20.9449 11.8094 20.9449ZM27.0476 20.9449C26.0597 20.9449 25.2555 20.141 25.2555 19.1528C25.2555 18.1649 26.0597 17.3607 27.0476 17.3607C28.0358 17.3607 28.8397 18.1649 28.8397 19.1528C28.8397 20.141 28.0358 20.9449 27.0476 20.9449ZM30.9841 18.7718H29.8267C29.6398 17.4037 28.4662 16.3449 27.0476 16.3449C25.629 16.3449 24.4556 17.4037 24.2684 18.7718H22.8571V10.1371H27.0461C28.0224 10.1371 28.9202 10.6187 29.4474 11.4255L30.9841 13.7774V18.7718Z" fill="white"/>
<path d="M27.8785 19.153C27.8785 19.6119 27.5065 19.9839 27.0476 19.9839C26.5887 19.9839 26.2166 19.6119 26.2166 19.153C26.2166 18.694 26.5887 18.322 27.0476 18.322C27.5065 18.322 27.8785 18.694 27.8785 19.153Z" fill="white"/>
<path d="M12.6404 19.153C12.6404 19.6119 12.2684 19.9839 11.8094 19.9839C11.3508 19.9839 10.9788 19.6119 10.9788 19.153C10.9788 18.694 11.3508 18.322 11.8094 18.322C12.2684 18.322 12.6404 18.694 12.6404 19.153Z" fill="white"/>
<path d="M8.12698 4.9788V2.75653C8.12698 2.47577 7.8997 2.24878 7.61894 2.24878C7.33847 2.24878 7.11118 2.47577 7.11118 2.75653V4.81313L6.07446 6.23526C5.90908 6.46196 5.95878 6.77934 6.18548 6.94443C6.27617 7.01069 6.3808 7.04237 6.48456 7.04237C6.64121 7.04237 6.79584 6.97 6.89524 6.8334L8.02961 5.27787C8.09268 5.19126 8.12698 5.08663 8.12698 4.9788Z" fill="white"/>
<path d="M26.8764 10.6448H25.9048C25.624 10.6448 25.3967 10.8721 25.3967 11.1528V14.7083C25.3967 14.989 25.624 15.2163 25.9048 15.2163H29.3233C29.6419 15.2163 29.927 15.0515 30.0868 14.7763C30.2467 14.5011 30.247 14.1715 30.0895 13.8968L28.9033 11.8207C28.4892 11.0959 27.7123 10.6448 26.8764 10.6448ZM26.4128 14.2005V11.6609H26.8764C27.3487 11.6609 27.7873 11.9152 28.0212 12.325L29.0928 14.2005H26.4128Z" fill="white"/>
</svg>
