<svg width="80" height="34" viewBox="0 0 80 34" fill="none" xmlns="http://www.w3.org/2000/svg">
<g opacity="0.5">
<path fill-rule="evenodd" clip-rule="evenodd" d="M54.1362 0.00334809C53.2391 0.0676939 52.4373 0.325077 51.8289 0.646806C50.611 1.28983 48.3036 3.89455 48.3036 3.89455C46.893 5.69494 48.4315 5.92016 48.4315 5.92016C48.4315 5.95233 48.4631 5.95233 48.4956 5.95233C48.2591 6.18742 48.0345 6.43425 47.8226 6.69188C47.4377 7.14187 47.2774 7.52794 47.2453 7.8175V8.10705C47.3415 8.62139 47.95 8.71791 47.95 8.71791C50.4507 9.13616 49.8418 10.6474 52.0208 11.6761C52.7901 12.03 53.4957 12.2226 54.1362 12.3196C55.8031 12.5126 57.1179 11.9339 58.0146 11.4513C60.0659 10.2939 60.8993 8.62182 61.0913 8.46095C61.2517 8.30009 61.9893 7.04621 60.8347 6.66056C61.2196 6.14579 61.4761 5.72798 61.5724 5.66363C61.6686 5.59928 61.9563 5.11712 61.9563 4.69887C61.9563 4.28105 61.7644 3.89498 60.9951 3.79846C59.4249 3.50933 59.0084 2.22285 57.0846 0.872445C56.0913 0.164213 55.0654 -0.0288248 54.1362 0.00334809ZM54.1362 11.1931C52.3741 10.9683 51.4119 9.71398 50.7714 8.97443C50.0983 8.20271 49.329 7.84881 48.9758 7.75272C48.6235 7.68838 48.5918 7.72055 48.7193 7.52751C48.848 7.33448 49.521 6.59493 49.521 6.59493C51.1554 8.94226 53.0788 9.61746 54.1362 9.84267C54.6173 9.93919 54.9055 9.90702 54.9055 9.90702C56.8605 10.2927 59.6178 8.39575 59.6178 8.39575C58.8485 9.29616 57.1179 11.1931 54.7781 11.2252C54.5527 11.2252 54.3291 11.2252 54.1362 11.1931Z" fill="#FFF22D"/>
<path fill-rule="evenodd" clip-rule="evenodd" d="M20.4175 23.739C19.1136 26.9862 17.8101 30.2337 16.507 33.4813H23.8153C23.8153 33.4813 22.5008 32.8061 23.1739 30.7809C23.879 28.7549 24.552 26.8902 24.552 26.8902C24.552 26.8902 24.6483 26.6967 24.8086 26.8258C24.8086 26.8258 25.2892 27.951 27.5971 27.8867C27.7895 27.8549 28.014 27.8549 28.206 27.8232C30.3214 27.6306 32.4692 26.6336 33.6866 23.7068C33.9753 22.9998 34.2956 22.2925 34.5842 21.5847C35.6737 19.0125 36.4751 16.4726 34.7125 14.9613C34.6804 14.9292 34.6163 14.897 34.5842 14.8648C33.1739 13.7714 31.3788 13.8679 28.2055 13.9322C26.8594 13.9322 25.2568 13.9644 23.3334 13.8679L22.4358 14.0288C22.4358 14.0288 23.8144 14.8648 23.173 16.6657C22.9177 17.4039 21.7315 20.459 20.4175 23.739ZM77.6628 27.1793C78.3996 26.9549 79.041 26.3115 79.233 25.4107C79.4896 24.2855 78.849 23.5455 77.9194 23.5455C77.8223 23.5455 77.7591 23.5781 77.6628 23.5781C77.2459 23.6424 76.8611 23.8355 76.5404 24.1242C76.2838 24.3494 76.0602 24.6711 75.8998 25.025C75.8673 25.1533 75.8357 25.2824 75.8036 25.4102C75.7074 25.8611 75.7711 26.2789 75.8998 26.568C76.0602 26.8254 76.2522 27.0506 76.5404 27.1471C76.7332 27.2115 76.9252 27.2436 77.1501 27.2436V27.2754C77.3254 27.2747 77.4991 27.2422 77.6628 27.1793ZM77.6628 23.0311C77.7907 22.9994 77.9194 22.9994 78.0468 22.9994C79.2972 22.9994 80.2584 23.9002 79.9377 25.4107C79.6812 26.665 78.7199 27.501 77.6628 27.7584C77.4384 27.7902 77.2459 27.8228 77.0214 27.8228C76.8611 27.8228 76.7007 27.7902 76.5404 27.7902C76.3167 27.7267 76.0918 27.6619 75.8998 27.5658C75.2584 27.1797 74.9061 26.4406 75.098 25.4111C75.2584 24.8002 75.5475 24.2859 75.8998 23.9007C76.0911 23.712 76.3065 23.5498 76.5404 23.4181C76.8936 23.2246 77.278 23.0638 77.6628 23.0311ZM77.6628 26.5367L77.3421 25.6041H77.0856L76.8611 26.6967H76.3167L76.5404 25.5715L76.8611 24.0929H77.8223C78.4954 24.0929 78.8486 24.2855 78.7203 24.8963C78.6241 25.3789 78.3034 25.5398 77.9511 25.5715L78.368 26.6967H77.7266L77.6628 26.5367ZM77.6628 24.5424H77.6945C77.919 24.5424 78.1756 24.575 78.1431 24.8324C78.0798 25.1215 77.9194 25.1859 77.6628 25.1859H77.1818L77.3105 24.5424H77.6628ZM76.5404 15.0253C76.9252 15.7648 76.7649 16.5687 76.7007 17.0187C76.7007 17.243 76.6366 17.533 76.5404 17.8222C76.3693 18.4054 76.1552 18.9751 75.8998 19.5265C75.6108 20.2343 75.3225 20.7808 75.3225 20.7808H67.9822C67.1813 22.4203 67.4695 24.7355 70.0976 24.6072C70.2263 24.6072 70.3541 24.6072 70.4824 24.5754C72.9185 24.3502 74.5849 22.9994 74.5849 22.9994L73.4949 25.8289C73.4949 25.8289 72.7902 26.9867 70.4824 27.4684C69.6815 27.6619 68.6553 27.7584 67.4374 27.6936C65.7069 27.6301 64.5211 27.1476 63.7519 26.4402C60.9951 23.9637 63.367 18.723 63.1421 19.2691C63.2708 18.9473 63.4628 18.4013 63.7519 17.7256C64.5853 15.8931 66.3475 13.2566 70.4824 13.0958H71.1555C73.7194 13.1601 75.1618 13.6423 75.8994 14.2535C76.2205 14.5105 76.4125 14.7679 76.5404 15.0253ZM70.4829 18.723H71.3479C71.7328 18.6586 73.1426 16.0861 71.2838 15.8935C70.9956 15.8613 70.7074 15.9257 70.4829 16.0222C69.2325 16.5365 68.7523 18.5943 68.7523 18.5943C68.7198 18.7234 68.8802 18.7234 68.8802 18.7234H70.4829V18.723ZM63.7523 15.8609H64.1692L65.0988 13.6744H62.8547L63.7527 11.3915L64.7781 8.85109H62.7906C60.4832 14.1566 56.0917 13.6744 56.0917 13.6744L55.1945 15.8609H56.7972L53.4957 24.0924L52.0533 27.6615H59.7452C57.7264 26.7606 58.367 25.0894 58.367 25.0894C58.367 25.0894 60.6427 19.1726 62.0209 15.8609H63.7523ZM53.4957 17.2113C52.1166 20.5877 50.3865 25.0894 50.3865 25.0894C50.3865 25.0894 49.8092 26.6645 51.4765 27.6615H43.7838L46.0279 22.099L49.3611 13.7705H54.9384C54.6814 14.2853 54.1362 15.6361 53.4957 17.2113ZM46.0275 17.9513C45.5464 17.6295 44.6484 17.3404 43.3348 18.2087C41.6043 19.3656 40.0016 25.0898 40.0016 25.0898C40.0016 25.0898 39.6492 26.9549 41.0916 27.6619H33.4309C33.4309 27.6619 33.9116 26.4724 34.5846 24.8324C35.8666 21.6168 37.8221 16.7935 37.8541 16.6326C37.9183 16.3435 38.8479 15.057 37.4056 13.8996H42.8221L42.341 15.3144C42.341 15.3144 42.3735 15.5396 42.5655 15.3144C42.7259 15.1535 43.7196 13.964 46.0275 13.5457C46.6364 13.4171 47.3736 13.3527 48.239 13.4171L46.3482 18.24C46.3482 18.2404 46.2511 18.0795 46.0275 17.9513ZM28.206 23.8355C27.7891 24.6072 27.3084 25.025 26.5396 24.8963C25.001 24.6389 27.6291 19.7204 28.1102 18.1443C28.1102 18.1443 28.1423 18.0152 28.2064 17.8552C28.4309 17.3082 28.9436 16.247 29.6808 16.6009C30.6104 17.0191 30.5783 17.5652 29.5846 20.2021C29.0715 21.6168 28.687 22.9672 28.206 23.8355ZM24.2959 7.7585L21.6995 12.6458C21.6995 12.6458 21.6353 10.2984 20.4175 8.91586C19.8086 8.24066 18.9752 7.79024 17.7253 7.91893C13.9431 8.27283 14.9368 11.7775 15.3854 12.9031C15.3854 12.9031 18.5907 20.9099 18.6224 21.4877C18.6865 22.0668 19.8082 24.8324 17.0839 27.9506C17.0839 27.9506 13.013 33.7383 4.13456 30.7162C4.13456 30.7162 0.929195 29.6227 0 26.3754L3.68599 21.6812C3.68599 21.6812 2.66059 27.8223 8.42989 27.3397C13.8468 26.8571 10.1288 19.6869 9.80808 18.8191C9.2633 17.243 5.96173 9.91236 9.77601 6.53636C12.5007 4.09251 17.0197 3.38514 20.4175 4.54293C22.1164 5.12161 23.5587 6.18289 24.2959 7.7585Z" fill="#33A457"/>
</g>
</svg>
