<svg width="23" height="22" viewBox="0 0 23 22" fill="none" xmlns="http://www.w3.org/2000/svg">
<path d="M21.4628 16.5169L18.2687 13.3215C17.8398 12.8948 17.2654 12.6596 16.6516 12.6596C16.0129 12.6596 15.4098 12.9111 14.9538 13.3674L13.7104 14.6104C12.7443 14.0734 11.4602 13.3349 10.1271 12.0017C8.79544 10.6696 8.05677 9.38927 7.51703 8.41794L8.76153 7.17435C9.68679 6.24717 9.70571 4.75968 8.80385 3.85865L5.61047 0.665171C5.18271 0.236229 4.60832 0 3.99297 0C3.36848 0 2.77773 0.240434 2.32438 0.678061C2.05012 0.898931 0.673792 2.1139 0.160835 4.61954C-0.557359 8.12668 1.09277 11.5011 5.85648 16.2667C11.1779 21.5865 15.7209 22 16.9865 22C17.25 22 17.4089 21.9837 17.4513 21.9788C19.9331 21.6879 20.8217 20.5857 21.4705 19.781C22.3112 18.738 22.3083 17.3656 21.4628 16.5169ZM20.4029 18.9202C19.7931 19.6767 19.2171 20.391 17.2918 20.6167C17.2908 20.6168 17.1855 20.6286 16.9865 20.6286C15.8542 20.6286 11.7748 20.2441 6.82617 15.297C2.43317 10.9022 0.89128 7.88834 1.50425 4.89453C1.95166 2.70904 3.13948 1.78013 3.18564 1.74484L3.2266 1.71458L3.26253 1.67856C3.46082 1.48045 3.72018 1.3713 3.99288 1.3713C4.24118 1.3713 4.47083 1.46436 4.64013 1.63422L7.83425 4.82843C8.20176 5.19557 8.1822 5.81339 7.79119 6.20521L6.38379 7.61143L6.36066 7.63566C5.99388 8.03964 6.03703 8.5856 6.23907 8.94113C6.82205 9.99319 7.62061 11.4341 9.15719 12.9711C10.6887 14.5026 12.1274 15.3005 13.1766 15.8824C13.2816 15.9413 13.4984 16.0402 13.7699 16.0402C14.0904 16.0402 14.3847 15.9046 14.6025 15.6573L15.9234 14.3368C16.1206 14.1395 16.3791 14.0308 16.6514 14.0308C16.9003 14.0308 17.1311 14.1242 17.3 14.2922L20.492 17.4855C20.8974 17.8924 20.73 18.5145 20.4029 18.9202Z" fill="white"/>
<path d="M13.3882 3.35972C14.5663 3.4953 15.9535 4.20892 16.9222 5.1777C17.8999 6.15543 18.6153 7.55672 18.7445 8.74764C18.7826 9.09897 19.0797 9.35933 19.4253 9.35933C19.45 9.35933 19.475 9.35796 19.5001 9.35531C19.8765 9.31444 20.1486 8.97619 20.1077 8.59972C19.9444 7.09431 19.0952 5.41155 17.8919 4.2081C16.6998 3.01589 15.0342 2.16889 13.545 1.99748C13.169 1.95387 12.8288 2.22411 12.7855 2.60021C12.7421 2.97631 13.0119 3.31639 13.3882 3.35972Z" fill="white"/>
<path d="M12.7476 6.23198C13.3848 6.30539 14.2666 6.77803 14.8443 7.35571C15.4269 7.93842 15.9005 8.82867 15.9702 9.47272C16.0084 9.82414 16.3055 10.0845 16.6511 10.0845C16.6757 10.0845 16.7007 10.0831 16.7257 10.0805C17.1022 10.0396 17.3744 9.70136 17.3335 9.3249C17.2143 8.2253 16.4843 7.0565 15.8138 6.38602C15.1494 5.72149 13.992 4.99498 12.9044 4.86964C12.5278 4.82585 12.1881 5.09618 12.1448 5.47228C12.1015 5.84847 12.3714 6.18865 12.7476 6.23198Z" fill="white"/>
</svg>
