<svg width="80" height="59" viewBox="0 0 80 59" fill="none" xmlns="http://www.w3.org/2000/svg">
<g opacity="0.5" clip-path="url(#clip0_81_54)">
<path d="M34.438 58.7011C50.5969 58.7011 63.6963 45.5604 63.6963 29.3506C63.6963 13.1407 50.5969 0 34.438 0C18.2791 0 5.17969 13.1407 5.17969 29.3506C5.17969 45.5604 18.2791 58.7011 34.438 58.7011Z" fill="#F4991D"/>
<path d="M0 16.3114L16.0688 14.6287C16.0688 14.6287 10.3155 9.96443 9.69267 7.79945C9.69267 7.79945 9.45226 6.59912 11.37 5.96881C13.2878 5.3385 21.4397 2.12117 21.4397 2.12117C21.4397 2.12117 33.1922 -1.53463 38.7051 12.8036L48.5344 11.2634V12.8036L65.7998 12.3212L66.4226 18.3339H70.739L75.9186 36.2785L53.3807 53.8396C53.3807 53.8396 48.2011 58.312 36.8365 58.5532L3.89018 45.4208L0 16.3114Z" fill="#2F358C"/>
<path d="M11.7032 7.89262C11.7032 7.89262 18.2761 5.3933 18.8006 4.86164C19.3743 4.28614 27.1929 1.34835 32.613 6.06198C32.613 6.06198 36.4485 9.81644 37.6505 14.3382L39.9508 19.0519L41.1473 21.2662C41.1473 21.2662 41.4806 22.0828 41.1473 22.2308C40.814 22.3788 38.3663 18.4764 38.3663 18.4764L37.2626 16.8869C37.2626 16.8869 36.301 15.6372 33.5199 16.2127C30.7389 16.7882 26.4717 17.2705 23.4011 16.7444C20.3851 16.1634 13.2823 10.1014 11.7032 7.89262Z" fill="#75B947"/>
<path d="M24.1715 16.6951C21.1009 16.1634 14.0035 10.1015 12.419 7.89263C12.419 7.89263 18.9919 5.39331 19.5164 4.86166C19.806 4.57117 22.3466 3.51334 25.5101 3.42016C22.057 3.32151 19.1339 4.52732 18.7952 4.86166C18.2269 5.43716 11.7032 7.89263 11.7032 7.89263C13.2877 10.1563 20.3851 16.2182 23.4557 16.6951C24.5102 16.8869 25.6631 16.9362 26.8596 16.9362C25.898 16.8869 24.9856 16.8376 24.1715 16.6951Z" fill="#609744"/>
<path d="M17.4566 9.57532C17.4566 9.57532 20.478 8.0845 22.1062 9.57532C25.3189 12.5076 32.2743 14.0478 33.6183 13.7628C33.6183 13.7628 26.663 15.3523 24.6523 14.2451C22.0134 12.7981 20.4289 10.825 17.4566 9.57532Z" fill="#609744"/>
<path d="M2.44781 18.4763L6.19047 44.215L11.7034 43.8313L10.8401 32.7652L16.353 32.2829L15.6318 27.4706L10.1189 28.1941L9.63808 23.5298L16.353 22.3295L15.3914 16.1689L2.44781 18.4763ZM31.1269 20.6413L33.7659 41.6663L38.8964 41.0908L38.1752 30.5071L46.5674 40.2248L50.5505 39.7425L47.4307 14.245L41.7703 14.8699L42.9668 25.5523L36.3994 19.5342L31.1269 20.6413Z" fill="white"/>
<path d="M36.3994 20.0165L42.9722 26.0291L42.9231 25.4975L36.3994 19.5342L31.1214 20.6413L31.1706 21.0743L36.3994 20.0165ZM47.4306 14.7219L50.5013 39.7425H50.5504L47.4306 14.245L41.7702 14.8699L41.8686 15.3522L47.4306 14.7219ZM38.1751 30.9839L38.8963 41.0853L38.2243 30.9839H38.1751Z" fill="#CDCBE6"/>
<path d="M48.8731 15.2041L49.5889 20.8824L52.9436 20.9811L54.4789 38.6846L60.8551 38.5421L60.2322 20.4988L64.6906 20.1644L63.8274 14.0038L48.8731 15.2041Z" fill="white"/>
<path d="M49.4468 15.7798L54.0036 15.1549L63.8329 13.9985L48.8677 15.1988L49.5889 20.8826H50.0697L49.4468 15.7798ZM53.5228 21.5567L52.9928 21.5074L54.4789 38.6847L55.0089 38.6354L53.5228 21.5567Z" fill="#CDCBE6"/>
<path d="M24.5104 19.2931L19.0903 19.9179L16.7901 43.3983L21.1065 43.1572L22.2101 36.9034L25.3299 36.5197L27.8651 42.2912L32.4218 41.6663L24.5104 19.2931ZM22.1118 32.9078L22.7346 28.819H23.6963L25.1332 32.5734L22.1118 32.9078Z" fill="white"/>
<path d="M19.2323 20.1097L24.554 19.3424L24.5048 19.2931L19.134 19.9179L16.8337 43.349L17.7954 43.2997L19.2323 20.1097ZM28.7283 42.1432L26.0401 36.4649L25.4173 36.5636L27.865 42.2912L32.4218 41.6664V41.5239L28.7283 42.1432Z" fill="#CDCBE6"/>
<path d="M69.7338 20.8824L62.538 21.9896L62.7784 38.0104L66.614 37.6268L66.8544 33.538L69.0126 33.2968L70.6899 36.6621L74.7659 36.5196L69.7338 20.8824ZM68.0072 30.1178C66.6631 30.2165 66.3299 29.4437 66.0895 28.6763L69.2092 28.342C69.2092 28.3365 69.3513 30.0192 68.0072 30.1178Z" fill="white"/>
<path d="M63.4996 22.324L69.9742 21.6005L69.7338 20.8332L62.538 21.9403L62.7784 37.9119H63.1117L63.4996 22.324ZM69.8758 29.0108L69.1109 29.0601C69.0126 29.5424 68.7284 30.0686 67.9581 30.1179C67.5756 30.1673 67.2368 30.0686 66.9964 29.9754C67.2368 30.4084 67.6685 30.7428 68.5809 30.7428C69.925 30.6934 69.8758 29.0108 69.8758 29.0108ZM69.4934 33.8724L69.3513 33.9217L70.6954 36.6184H70.7446L69.4934 33.8724Z" fill="#C6C3E1"/>
<path d="M3.64423 27.1856L6.33238 44.2149L7.43606 44.1163L4.31627 27.6624L3.64423 27.1856Z" fill="#CDCBE6"/>
<path d="M77.5524 34.3986L77.1208 34.4972L77.0716 34.3547L78.0769 34.1629L78.1261 34.3054L77.6945 34.404L77.8857 35.6537L77.6945 35.703L77.5524 34.3986ZM79.7106 34.689C79.6614 34.4972 79.6123 34.2561 79.5686 34.1135C79.5686 34.3054 79.5194 34.4479 79.4702 34.689L79.3282 35.4125H79.1861L78.8528 34.7877C78.7544 34.5959 78.6616 34.4534 78.6124 34.2561C78.6616 34.4479 78.6616 34.6397 78.7107 34.8809L78.7599 35.4564L78.5687 35.5057L78.4266 34.1081L78.667 34.0587L79.0003 34.6836C79.0987 34.8261 79.1424 34.9741 79.2407 35.1166C79.2407 34.9741 79.2899 34.8261 79.2899 34.6342L79.432 33.9107L79.6724 33.8614L80.0057 35.2097L79.8144 35.2591L79.7106 34.689Z" fill="#2F358C"/>
</g>
<defs>
<clipPath id="clip0_81_54">
<rect width="80" height="58.6957" fill="white"/>
</clipPath>
</defs>
</svg>
