<svg width="55" height="60" viewBox="0 0 55 60" fill="none" xmlns="http://www.w3.org/2000/svg">
<path opacity="0.2" d="M54.6483 59.0669C54.6483 58.5552 43.1741 58.1338 29.0367 58.1338C14.8994 58.1338 3.42516 58.5552 3.42516 59.0669C3.42516 59.5786 14.8994 60 29.0367 60C43.207 60 54.6483 59.5786 54.6483 59.0669Z" fill="#5D5D5D"/>
<path d="M29.3984 11.8098C40.5439 11.8098 49.5852 20.0873 49.5852 30.2913V48.7727H29.3984C18.2529 48.7727 9.21161 40.4952 9.21161 30.2913V11.8098H29.3984Z" fill="white"/>
<path opacity="0.3" d="M46.692 20.7795C45.0152 22.5554 43.996 24.8732 43.996 27.4016C43.996 31.1641 46.2317 34.445 49.5523 36.2209V30.2912C49.5523 26.8297 48.5331 23.5788 46.692 20.7795Z" fill="white"/>
<path d="M38.7685 13.9468C35.6122 15.6023 33.5081 18.7026 33.5081 22.2845C33.5081 27.5821 38.2096 31.8864 43.996 31.8864C46.0344 31.8864 47.9413 31.3446 49.5523 30.4115V30.2911C49.5523 23.1875 45.1796 17.017 38.7685 13.9468Z" fill="white"/>
<path opacity="0.5" d="M22.9215 15.3909C17.7269 15.3909 12.9596 17.0464 9.21161 19.8457V30.3205C9.21161 40.5245 18.2529 48.802 29.3984 48.802H39.0644C42.5823 45.2502 44.7193 40.5546 44.7193 35.3773C44.7193 24.3306 34.9547 15.3909 22.9215 15.3909Z" fill="#F8F6EC"/>
<path d="M49.5523 48.7426L29.3984 48.7727C18.2529 48.7727 9.21161 40.4951 9.21161 30.2912V11.8398L49.5523 48.7426Z" fill="white"/>
<path opacity="0.3" d="M12.335 18.4318C12.335 32.4584 24.7627 43.8062 40.0507 43.8062C41.3658 43.8062 42.6481 43.7159 43.8974 43.5654L12.598 14.9402C12.4336 16.084 12.335 17.2579 12.335 18.4318Z" fill="white"/>
<path opacity="0.3" d="M49.5523 48.7728L9.37599 11.9905C14.1104 18.462 19.568 25.0238 25.1243 30.4418C29.4642 34.6558 41.9905 44.0772 49.5523 48.7728Z" fill="white"/>
<path opacity="0.3" d="M22.3955 23.8799L9.21161 11.8398V30.3213C9.21161 38.4784 14.9981 45.4014 22.9873 47.8396C19.568 44.679 17.4639 40.3446 17.4639 35.5888C17.4639 31.0738 19.3379 26.9802 22.3955 23.8799Z" fill="white"/>
<path opacity="0.3" d="M40.3466 40.3447C36.9274 44.1674 31.7327 46.6356 25.9134 46.6356C22.0338 46.6356 18.4173 45.552 15.4254 43.6858C19.042 46.8464 23.9407 48.8029 29.3655 48.8029H49.5523V48.7728L40.3466 40.3447Z" fill="white"/>
<path opacity="0.3" d="M10.3952 22.8866C10.3952 19.9067 10.9541 17.0171 12.0062 14.3683L9.21161 11.8398V30.3213C9.21161 40.5252 18.2529 48.8028 29.3984 48.8028H49.5852V48.7727L47.5797 46.9366C44.6536 47.8998 41.5302 48.4115 38.2425 48.4115C22.8558 48.3814 10.3952 36.9734 10.3952 22.8866Z" fill="#F8F6EC"/>
<path d="M49.2235 52.3546C50.6373 51.9934 52.1168 52.776 52.4784 54.0703C52.8729 55.3646 52.0181 56.7191 50.5715 57.0502C49.1578 57.4114 47.6783 56.6288 47.3166 55.3345C46.955 54.0402 47.8098 52.7158 49.2235 52.3546ZM48.6975 50.5185C46.1659 51.1506 44.6535 53.4984 45.344 55.8161C46.0015 58.1338 48.5989 59.5184 51.1304 58.8863C53.662 58.2542 55.1744 55.8763 54.4839 53.5887C53.8264 51.271 51.2291 49.9165 48.6975 50.5185Z" fill="white"/>
<path opacity="0.5" d="M52.0506 56.1767C51.6889 56.5981 51.1958 56.9292 50.604 57.0797C49.1903 57.4409 47.7108 56.6583 47.3491 55.364C47.0861 54.4008 47.4477 53.4376 48.2368 52.8657C47.8423 52.354 47.5135 51.7821 47.1847 51.2102C45.6066 52.2336 44.8175 54.0697 45.3436 55.8757C46.0011 58.1934 48.5985 59.578 51.13 58.9459C52.3136 58.6449 53.2671 57.9827 53.8917 57.1098C53.2671 56.8088 52.6424 56.5078 52.0506 56.1767Z" fill="white"/>
<path d="M10.1646 52.3545C11.5784 52.0234 13.0578 52.806 13.4195 54.1003C13.7812 55.3946 12.9263 56.7491 11.5126 57.0802C10.0989 57.4113 8.61938 56.6287 8.25773 55.3344C7.89608 54.0401 8.75089 52.6856 10.1646 52.3545ZM9.63859 50.5184C7.10702 51.1204 5.59465 53.4983 6.2522 55.816C6.90975 58.1337 9.50708 59.5183 12.0386 58.9163C14.5702 58.3143 16.0826 55.9364 15.4579 53.6187C14.7675 51.301 12.1702 49.9164 9.63859 50.5184Z" fill="white"/>
<path opacity="0.5" d="M12.9596 56.2069C12.598 56.6283 12.1048 56.9594 11.513 57.0798C10.0993 57.4109 8.6198 56.6283 8.25815 55.334C7.99513 54.3708 8.38965 53.4076 9.14584 52.8357C8.75131 52.324 8.42253 51.7521 8.12664 51.1802C6.54851 52.1735 5.72658 54.0096 6.25262 55.8156C6.91017 58.1333 9.50749 59.5179 12.0391 58.9159C13.2226 58.645 14.209 57.9527 14.8008 57.0798C14.1432 56.839 13.5514 56.538 12.9596 56.2069Z" fill="white"/>
<path d="M10.4938 10.5455C9.86915 10.5455 9.34311 10.0639 9.34311 9.49205C9.34311 7.02384 8.58693 5.15763 7.14031 3.92353C4.80601 1.90682 1.28812 2.11752 1.25524 2.11752C0.630565 2.17772 0.071647 1.72622 0.00589198 1.15432C-0.0598631 0.582418 0.4333 0.0707164 1.05797 0.0105162C1.25524 0.0105162 5.59507 -0.290485 8.68556 2.32822C10.6582 3.98373 11.6445 6.39174 11.6445 9.46194C11.6445 10.0639 11.1514 10.5455 10.4938 10.5455Z" fill="white"/>
</svg>
