<?xml version="1.0" encoding="utf-8"?><svg viewBox="0 0 200 60" xmlns="http://www.w3.org/2000/svg" xmlns:xlink="http://www.w3.org/1999/xlink"><style>:root>svg{display:none}:root>svg:target{display:block}</style><svg viewBox="0 0 50 50" id="icon-24hours" xmlns="http://www.w3.org/2000/svg"><g clip-path="url(#aaclip0_1922_1550)"><path d="M48.866 17.536a1.465 1.465 0 00-2.796.873c.664 2.125 1 4.343 1 6.591 0 12.17-9.9 22.07-22.07 22.07S2.93 37.17 2.93 25 12.83 2.93 25 2.93a22.065 22.065 0 0115.165 6.037l-3.141-.783a1.465 1.465 0 00-.709 2.843l8.44 2.103.012.003a1.466 1.466 0 001.386-.397c.364-.37.505-.904.371-1.405l-2.242-8.388a1.465 1.465 0 00-2.83.757l.878 3.284A24.992 24.992 0 0025 0C18.322 0 12.044 2.6 7.322 7.322 2.6 12.044 0 18.322 0 25c0 6.678 2.6 12.956 7.322 17.678A24.837 24.837 0 0025 50c6.678 0 12.956-2.6 17.678-7.322C47.4 37.956 50 31.678 50 25c0-2.545-.382-5.056-1.134-7.464z"/><path d="M28.337 26.192h-.123v-7.46a1.465 1.465 0 00-2.644-.869l-6.558 8.91a1.464 1.464 0 001.177 2.333l5.095.01v2.24a1.465 1.465 0 002.93 0v-2.234H28.334a1.465 1.465 0 00.003-2.93zm-5.252-.01l2.2-2.989v2.993l-2.2-.004z"/><path d="M17.597 29.877h-4.338c.688-.8 1.496-1.583 2.25-2.314 1.906-1.849 3.553-3.445 3.553-5.301a5.062 5.062 0 00-5.058-5.055 5.043 5.043 0 00-4.655 3.088 1.465 1.465 0 002.699 1.139 2.118 2.118 0 011.957-1.297c1.172 0 2.127.953 2.127 2.125 0 .032-.018.332-.615 1.072-.516.64-1.26 1.362-2.048 2.126-1.589 1.542-3.39 3.288-4.28 5.286a1.463 1.463 0 001.338 2.06h7.07a1.465 1.465 0 000-2.929zM36.635 22.269c-.49 0-.961.092-1.4.258v-3.904a1.465 1.465 0 10-2.93 0v12.754a1.465 1.465 0 102.93 0v-4.102c.018-.092.028-.188.028-.286 0-.97.628-1.79 1.372-1.79.745 0 1.373.82 1.373 1.79v4.388a1.465 1.465 0 102.93 0V26.99c0-2.602-1.93-4.72-4.303-4.72z"/></g><defs><clipPath id="aaclip0_1922_1550"><path d="M0 0h50v50H0z"/></clipPath></defs></svg><svg viewBox="0 0 80 27" id="icon-CocaCola" xmlns="http://www.w3.org/2000/svg"><g opacity=".5"><path d="M30.72 22.851c-2.976-1.918-7.016-2.254-13.531-.447-6.946 1.633-9.262 2.679-12.303.579-1.168-1.032-1.587-2.694-1.274-5.087.725-3.9 2.686-7.655 6.168-11.819 1.944-2.166 3.747-4.025 6.128-4.772 1.825-.468 1.654.966 1.434 1.171-.233 0-.625.037-.927.234-.246.19-.92.806-.956 1.633-.052 1.266 1.258 1.002 1.823.307.61-.783 1.51-2.283.801-3.681-.296-.498-.81-.842-1.446-.959-2.18-.124-4.21.915-6.085 2.064-4.098 2.847-7.376 6.792-9.231 11.11C.25 15.789-.716 19.52.734 22.558c1.122 2.108 3.45 3.227 6.228 2.993 1.948-.204 4.304-.834 5.889-1.214 1.584-.381 9.695-3.17 12.36 1.683 0 0 .886-1.72 3.1-1.757 1.822-.168 4.448.527 6.361 1.932-.637-.958-2.444-2.37-3.951-3.344z"/><path d="M18.016 6.567c-1.517-.995-4.566.908-7.008 4.172-2.233 2.927-3.198 6.33-2.148 7.904 1.56 1.851 4.459-.842 5.691-2.283l.16-.169c.837-.9 1.485-1.983 2.112-3.023l.603-.995c.356-.066.785-.168 1.268-.307-.007.021-1.849 3.117-1.66 4.654.058.469.013 2.181 1.685 2.7 2.229.374 4.008-1.353 5.578-2.89l.418-.402-.088.358c-.652 2.268.227 2.744.777 2.92 1.663.483 3.649-1.932 3.655-1.932-.051.761-.202 1.39.6 1.895.757.271 1.523-.142 2.106-.53 2.097-1.478 3.787-3.792 5.152-5.792h-.87c-.011 0-2.149 3.1-3.537 3.773-.002 0-.255.13-.4.027-.18-.154-.11-.474.002-.7.006-.015 5.36-9.3 5.36-9.3h-2.528s-.276.447-.298.476c-.017-.014-.058-.091-.086-.128-1.566-2.166-5.112 1.166-7.782 5.03-1.028 1.486-2.337 3.159-3.694 4.366 0 0-2.01 1.843-2.869.519-.314-.556-.217-1.37-.04-1.904 1-2.847 2.723-5.43 4.684-6.99.554-.43 1.156-.556 1.454-.373.285.169.33.586.15.871-.456-.014-.822.125-1.12.432-.585.615-.79 1.208-.603 1.764.905 1.288 2.71-1.259 2.623-2.81-.031-.557-.328-1.084-.77-1.34-.66-.395-1.668-.293-2.32.022-.872.33-2.253 1.478-3.06 2.371-1.014 1.12-2.754 2.364-3.299 2.225.178-.476 1.648-3.484.102-4.61zm12.186 4.45c.492-.68 1.923-2.503 2.272-2.81 1.173-1.032 1.642-.578 1.683-.256a231.41 231.41 0 01-3.603 6.228c.002-.008-.38.578-.38.578-.537.82-1.078 1.522-1.959 2.012-.126.037-.333.052-.47-.051a.499.499 0 01-.214-.483c.053-.63.694-2.554 2.671-5.218zm-13.75 1.178s-.023.066-.033.088c-.003 0-1.103 1.793-1.103 1.793-.663.885-1.491 1.998-2.527 2.532-.306.102-.73.169-.947-.102-.458-.549-.222-1.31-.03-1.925l.068-.22c.55-1.492 1.423-2.81 2.273-4.032a.112.112 0 01.043-.014c.002.007.005.007.007.021.533 1.025 1.533 1.5 2.28 1.72.005 0 .01.008.01.022a.36.36 0 01-.041.117zm1.04-2.115c-.004.015-.489 1.127-.489 1.127-.07.059-.18.03-.308 0l-.217-.036c-.684-.212-1.199-.666-1.358-1.208-.219-1.054.681-1.88 1.078-2.18.38-.264.972-.403 1.316-.132.212.249.292.57.292.922 0 .475-.147 1.01-.313 1.507zm31.955 3.396c-.244-.527-.822-.864-1.439-.827-2.002.183-3.96 1.83-4.99 4.193-.539 1.215-.833 2.218-1.026 3.813.622-.717 1.892-1.895 3.334-2.54 0 0 .196-1.529 1.196-2.89.378-.564 1.135-1.471 1.986-1.23.742.25.481 2.306-.506 4.296-.73 1.464-1.849 2.928-2.98 3.938-1 .849-2.48 1.873-3.774 1.083-.816-.483-1.232-1.493-1.144-2.796.39-3.695 2.072-6.842 4.48-10.428 2.482-3.33 5.218-6.748 8.905-8.57.752-.381 1.448-.469 2.05-.235 0 0-3.46 1.903-5.11 5.423-.42.893-1.003 2.1-.416 3.17.308.555.853.6 1.292.57 2.022-.468 3.328-2.357 4.395-4.084.62-1.31 1.17-2.612 1.17-4.061 0-.176-.01-.41-.025-.586.966-.512 2.947.395 2.947.395 1.548.513 4.844 3.038 5.956 3.52.542-.629 1.433-1.58 1.935-2.056l-.726-.446c-1.163-.71-2.393-1.384-3.603-2.05-2.748-1.5-4.984-.973-6.123-.563-.447.161-.856.3-.856.3-.845-.922-2.23-.834-3.251-.585-3.672 1.053-7.08 3.622-10.735 8.08-2.687 3.49-4.353 6.505-5.241 9.484-.685 2.005-.893 4.954.778 6.704 1.42 1.485 3.305 1.163 4.635.63 2.883-1.42 5.474-4.48 6.765-8 .312-1.047.657-2.525.12-3.652zm6.629-11.029c-.382 4.377-3.784 6.946-4.626 7.15-.51.103-1.38-.124-.603-1.96 1.144-2.475 3.098-4.575 5.194-5.65.05.182.05.299.035.46zm20.18.556c-1.83 1.04-3.728 1.713-6.024 1.479a35.275 35.275 0 00-1.827 2.217c3.223.82 6.64-1.003 8.545-2.737C78.966 2.212 80 .01 80 .01s-1.511 1.727-3.745 2.993zM41.672 6.648h-2.4l-1.355 2.2h2.4l1.355-2.2z"/><path d="M70.223 23.055c-.258.175-.621.04-.486-.362.338-1.025 1.68-3.113 1.68-3.113l3.74-6.632h-2.561c-.122.2-.382.659-.382.659-.119-.198-.473-.636-.619-.731-.626-.396-1.544-.209-2.177.15-2.754 1.61-4.763 4.791-6.348 7.273 0 0-1.668 2.758-2.594 2.963-.723.058-.648-.916-.617-1.143.28-1.64.928-3.198 1.582-4.61a35.414 35.414 0 004.228-3.454c2.994-2.862 5.518-6.104 5.886-6.829 0 0-.399.08-.87.095-2.303 3.213-7.017 7.882-8.446 8.578.634-1.523 4.723-8.79 8.203-12.266l.548-.527c.847-.827 1.724-1.676 2.408-1.815.072-.008.165 0 .246.168.03.644-.21 1.12-.485 1.661l-.385.79s.546-.102.905-.219c.415-.783.876-1.661.706-2.707a.777.777 0 00-.619-.652c-1.038-.197-2.17.57-3.08 1.193l-.036.022c-4.68 3.666-8.632 8.95-12.087 16.166-.25.19-1.218.418-1.383.308.342-.703.771-1.647.986-2.672.037-.293.072-.592.072-.885 0-.63-.151-1.223-.716-1.632-.661-.33-1.479-.176-2.03.073-2.47 1.025-4.316 3.557-5.648 5.642-.716 1.325-1.43 2.744-1.629 4.37-.139 1.273.145 2.092.869 2.502.744.38 1.681-.015 2.05-.205 2.501-1.317 4.25-3.959 5.628-6.374.054-.007.807-.03 1.376-.176.008 0 .01 0 .023.008-.032.11-.326.988-.326.988-.874 2.561-1.278 4.303-.453 5.335 1.18 1.456 3.131-.051 4.719-2.042-.341 2.386.895 2.759 1.838 2.576 1.083-.292 2.29-1.449 2.849-2.042-.18.696-.131 1.94.854 2.064.675.125 1.18-.242 1.765-.557 2.097-1.142 4.607-4.947 5.258-6.047h-.854c-.927 1.4-2.106 3.236-3.588 4.108zM51.4 22.8a1.153 1.153 0 01-.182-.648c-.025-1.435 1.519-4.004 2.609-5.404h.002c.457 1 1.49 1.642 2.115 1.913-.775 1.728-3.434 5.427-4.544 4.139zm4.982-4.91c-.074.05-1.378-.389-1.63-1.596-.214-1.04.502-1.852 1.194-2.261.298-.235.746-.315 1.074-.198.305.205.388.571.388.965 0 .242-.032.491-.06.718l-.007.051a9.754 9.754 0 01-.96 2.32zm10.46 4.449c-.002 0-.248.22-.248.22-.352.314-.714.65-1.15.482-.122-.044-.206-.205-.227-.33-.02-.9.385-1.734.779-2.546l.1-.212c1.131-1.888 2.446-4.113 4.376-5.657.325-.235.678-.432 1.05-.278.087.08.186.22.186.358 0 .044-.039.161-.061.198-.54.871-1.053 1.786-1.552 2.664-.976 1.734-1.988 3.527-3.254 5.1z"/></g></svg><svg viewBox="0 0 80 34" id="icon-Sprite" xmlns="http://www.w3.org/2000/svg"><g opacity=".5" fill-rule="evenodd" clip-rule="evenodd"><path d="M54.136.003a5.913 5.913 0 00-2.307.644c-1.218.643-3.525 3.248-3.525 3.248-1.411 1.8.127 2.025.127 2.025 0 .032.032.032.065.032a9.996 9.996 0 00-.673.74c-.385.45-.546.836-.578 1.125v.29c.097.514.705.61.705.61 2.5.42 1.892 1.93 4.07 2.96.77.353 1.476.546 2.116.643 1.667.193 2.982-.386 3.879-.869 2.05-1.157 2.884-2.83 3.076-2.99.16-.16.898-1.415-.256-1.8.385-.515.641-.933.737-.997.097-.065.384-.547.384-.965 0-.418-.192-.804-.96-.9-1.571-.29-1.988-1.576-3.911-2.927-.994-.708-2.02-.9-2.949-.869zm0 11.19c-1.762-.225-2.724-1.479-3.365-2.219-.673-.771-1.442-1.125-1.795-1.221-.352-.065-.384-.032-.257-.225.129-.194.802-.933.802-.933 1.634 2.347 3.558 3.022 4.615 3.248.481.096.77.064.77.064 1.955.386 4.712-1.511 4.712-1.511-.77.9-2.5 2.797-4.84 2.83-.225 0-.449 0-.642-.033zM20.418 23.739l-3.911 9.742h7.308s-1.314-.675-.641-2.7c.705-2.026 1.378-3.89 1.378-3.89s.096-.194.257-.065c0 0 .48 1.125 2.788 1.06.192-.031.417-.031.609-.063 2.115-.192 4.263-1.19 5.48-4.116.29-.707.61-1.415.898-2.122 1.09-2.573 1.891-5.112.128-6.624-.032-.032-.096-.064-.128-.096-1.41-1.094-3.205-.997-6.379-.933-1.346 0-2.948.032-4.872-.064l-.897.16s1.378.837.737 2.638c-.255.738-1.441 3.793-2.755 7.073zm57.245 3.44c.737-.224 1.378-.867 1.57-1.768.257-1.126-.384-1.866-1.314-1.866-.097 0-.16.033-.256.033a2.175 2.175 0 00-1.123.546c-.256.225-.48.547-.64.901-.033.128-.064.257-.096.385-.097.451-.033.869.096 1.158.16.257.352.483.64.58.193.064.385.096.61.096v.031c.175 0 .35-.033.513-.096zm0-4.148c.128-.032.256-.032.384-.032 1.25 0 2.211.901 1.89 2.412a3.043 3.043 0 01-2.274 2.347c-.225.032-.417.065-.642.065-.16 0-.32-.033-.48-.033a3.73 3.73 0 01-.641-.224c-.642-.386-.994-1.125-.802-2.155.16-.61.45-1.125.802-1.51.191-.189.406-.351.64-.483.354-.193.738-.354 1.123-.387zm0 3.506l-.32-.933h-.257l-.225 1.093h-.544l.223-1.125.321-1.48h.961c.673 0 1.027.194.898.804-.096.483-.417.644-.769.675l.417 1.126h-.641l-.064-.16zm0-1.995h.032c.224 0 .48.033.448.29-.063.29-.224.354-.48.354h-.481l.129-.644h.352zm-1.123-9.517c.385.74.225 1.544.16 1.994 0 .224-.063.514-.16.803a12.281 12.281 0 01-.64 1.704c-.29.708-.578 1.255-.578 1.255h-7.34c-.8 1.64-.513 3.954 2.116 3.826.128 0 .256 0 .384-.032C72.918 24.35 74.585 23 74.585 23l-1.09 2.83s-.705 1.158-3.013 1.64c-.8.193-1.827.29-3.045.225-1.73-.064-2.916-.546-3.685-1.254-2.757-2.476-.385-7.717-.61-7.17.129-.323.32-.869.61-1.544.833-1.833 2.595-4.47 6.73-4.63h.674c2.563.064 4.006.546 4.743 1.158.322.257.513.514.641.771zm-6.057 3.698h.865c.385-.064 1.795-2.637-.064-2.83a1.622 1.622 0 00-.801.13c-1.25.514-1.73 2.571-1.73 2.571-.033.13.127.13.127.13h1.603v-.001zm-6.73-2.862h.416l.93-2.187h-2.244l.898-2.282 1.025-2.54h-1.987c-2.308 5.305-6.7 4.822-6.7 4.822l-.897 2.187h1.603l-3.301 8.231-1.443 3.57h7.692c-2.019-.901-1.378-2.573-1.378-2.573s2.276-5.916 3.654-9.228h1.731zm-10.257 1.35c-1.38 3.377-3.11 7.878-3.11 7.878s-.577 1.576 1.09 2.573h-7.692l2.244-5.563 3.333-8.329h5.577c-.257.515-.802 1.866-1.442 3.441zm-7.468.74c-.482-.322-1.38-.61-2.693.258-1.73 1.157-3.333 6.88-3.333 6.88s-.353 1.866 1.09 2.573H33.43s.48-1.19 1.154-2.83c1.282-3.215 3.237-8.038 3.27-8.2.063-.289.993-1.575-.45-2.732h5.417l-.481 1.414s.032.226.224 0c.16-.16 1.155-1.35 3.463-1.768a7.866 7.866 0 012.211-.129l-1.89 4.823s-.098-.16-.321-.289zm-17.822 5.884c-.417.772-.898 1.19-1.666 1.061-1.539-.257 1.09-5.176 1.57-6.752 0 0 .032-.129.096-.289.225-.547.738-1.608 1.475-1.254.93.418.897.964-.096 3.601-.514 1.415-.898 2.765-1.379 3.633zM24.296 7.76L21.7 12.646s-.065-2.348-1.282-3.73c-.61-.675-1.443-1.126-2.693-.997-3.782.354-2.788 3.859-2.34 4.984 0 0 3.206 8.007 3.237 8.585.064.579 1.186 3.344-1.538 6.463 0 0-4.071 5.787-12.95 2.765 0 0-3.205-1.093-4.134-4.34l3.686-4.695S2.661 27.822 8.43 27.34c5.417-.483 1.699-7.653 1.378-8.52-.545-1.577-3.846-8.908-.032-12.284 2.725-2.443 7.244-3.15 10.642-1.993 1.698.579 3.14 1.64 3.878 3.215z"/></g></svg><svg viewBox="0 0 8 4" id="icon-arrow-down" xmlns="http://www.w3.org/2000/svg"><path d="M3.475 3.894L.223.627a.37.37 0 010-.52.363.363 0 01.516 0l2.994 3.008L6.728.108a.364.364 0 01.516 0 .37.37 0 010 .52L3.992 3.893a.367.367 0 01-.517 0z"/></svg><svg viewBox="0 0 19 32" id="icon-arrow-left" xmlns="http://www.w3.org/2000/svg"><path d="M.385 17.015l16.013 14.593a1.35 1.35 0 001.903 0 1.335 1.335 0 000-1.894L3.253 16 18.3 2.286a1.335 1.335 0 000-1.894 1.35 1.35 0 00-1.903 0L.383 14.985c-.28.279-.4.648-.381 1.014a1.33 1.33 0 00.383 1.016z"/></svg><svg viewBox="0 0 19 32" id="icon-arrow-right" xmlns="http://www.w3.org/2000/svg"><path d="M18.31 14.985L2.297.392a1.35 1.35 0 00-1.903 0 1.335 1.335 0 000 1.894L15.442 16 .395 29.714a1.335 1.335 0 000 1.894 1.35 1.35 0 001.904 0l16.013-14.593c.28-.279.4-.648.381-1.014a1.33 1.33 0 00-.383-1.016z"/></svg><svg viewBox="0 0 32 31" id="icon-cart" xmlns="http://www.w3.org/2000/svg"><path d="M31.798 4.039a.923.923 0 00-.721-.347H6.509L5.822.715A.923.923 0 004.923 0h-4a.923.923 0 000 1.846H4.19l4.663 20.208c.097.419.47.715.9.715h18.494a.923.923 0 100-1.846h-17.76l-.71-3.077h18.532c.431 0 .806-.3.9-.72l2.77-12.308a.923.923 0 00-.18-.78zM27.569 16H9.35L6.937 5.538h22.987L27.57 16zM13.538 24a3.388 3.388 0 00-3.384 3.385 3.388 3.388 0 003.384 3.384 3.388 3.388 0 003.385-3.384A3.388 3.388 0 0013.538 24zm0 4.923A1.54 1.54 0 0112 27.385c0-.849.69-1.539 1.538-1.539.849 0 1.539.69 1.539 1.539a1.54 1.54 0 01-1.539 1.538zM24.615 24a3.388 3.388 0 00-3.384 3.385 3.388 3.388 0 003.384 3.384A3.388 3.388 0 0028 27.385 3.388 3.388 0 0024.615 24zm0 4.923a1.54 1.54 0 01-1.538-1.538c0-.849.69-1.539 1.538-1.539.849 0 1.539.69 1.539 1.539a1.54 1.54 0 01-1.539 1.538z"/></svg><svg viewBox="0 0 18 18" id="icon-cross" xmlns="http://www.w3.org/2000/svg"><path d="M10.055 9.005l7.716-7.716A.75.75 0 1016.71.23L8.995 7.945 1.28.23A.75.75 0 00.22 1.29l7.716 7.716L.22 16.721a.75.75 0 001.06 1.06l7.716-7.716 7.716 7.716a.75.75 0 001.06-1.06l-7.716-7.716z"/></svg><svg viewBox="0 0 32 22" id="icon-delivery" xmlns="http://www.w3.org/2000/svg"><path d="M31.917 13.348l-1.62-2.478a3.866 3.866 0 00-3.25-1.749h-4.19v-2.41a2.671 2.671 0 00-2.669-2.67h-7.841A4.986 4.986 0 007.459 0 4.984 4.984 0 002.48 4.979c0 1.726.884 3.249 2.222 4.142H.508a.508.508 0 100 1.016h5.08v1.016H3.554a.508.508 0 100 1.016h2.032v1.015H.508a.508.508 0 100 1.017h5.08v2.25a2.548 2.548 0 00-1.525 2.328v.5c0 .282.228.509.509.509h4.505a2.811 2.811 0 002.732 2.173 2.81 2.81 0 002.733-2.173h9.773a2.811 2.811 0 002.733 2.173c1.329 0 2.444-.93 2.733-2.173h1.711c.28 0 .508-.227.508-.508v-5.654a.508.508 0 00-.083-.278zm-28.42-8.37a3.968 3.968 0 013.962-3.962 3.967 3.967 0 013.963 3.963 3.967 3.967 0 01-3.963 3.963 3.968 3.968 0 01-3.963-3.963zm3.106 9.223H7.62a.508.508 0 100-1.017H6.603V12.17h3.556a.508.508 0 100-1.016H6.603v-1.016h6.603a.508.508 0 000-1.016h-2.99a4.976 4.976 0 002.218-4.064h7.755c.91 0 1.652.742 1.652 1.653v9.522H6.603v-2.031zm15.238 4.57H14.59a2.796 2.796 0 00-.722-1.523h7.974v1.524zM6.61 17.249h3.142c-.382.413-.642.94-.721 1.524H5.079a1.532 1.532 0 011.53-1.524zm5.2 3.697a1.794 1.794 0 01-1.793-1.792c0-.988.805-1.792 1.792-1.792.989 0 1.793.804 1.793 1.792s-.804 1.792-1.793 1.792zm15.238 0a1.794 1.794 0 01-1.792-1.792c0-.988.804-1.792 1.792-1.792s1.792.804 1.792 1.792-.804 1.792-1.792 1.792zm3.936-2.173h-1.157a2.81 2.81 0 00-2.78-2.427 2.81 2.81 0 00-2.779 2.427h-1.41v-8.635h4.188c.976 0 1.874.482 2.401 1.288l1.537 2.352v4.995z"/><path d="M27.878 19.153a.83.83 0 11-1.661 0 .83.83 0 011.662 0zM12.64 19.153a.83.83 0 11-1.661 0 .83.83 0 011.661 0zM8.127 4.979V2.757a.508.508 0 10-1.016 0v2.056L6.074 6.235a.507.507 0 10.821.598L8.03 5.278a.508.508 0 00.097-.3zM26.876 10.645h-.971a.508.508 0 00-.508.508v3.555c0 .281.227.508.508.508h3.418a.874.874 0 00.764-.44.872.872 0 00.003-.88l-1.187-2.075a2.34 2.34 0 00-2.027-1.176zm-.463 3.556v-2.54h.463c.473 0 .911.254 1.145.664l1.072 1.876h-2.68z"/></svg><svg viewBox="0 0 80 58" id="icon-drpepper" xmlns="http://www.w3.org/2000/svg"><g opacity=".5" clip-path="url(#ajclip0_81_70)"><path d="M71.878 15.605a1.224 1.224 0 10-.002-2.449 1.224 1.224 0 00.002 2.45z"/><path d="M72.865 13.932a1.086 1.086 0 01-.733 1.505 1.082 1.082 0 01-1.334-1.01 1.085 1.085 0 01.626-1.028 1.09 1.09 0 011.441.533zM46.7 32.835v.323l-5.423 2.557v-.43s.734-.708.734-2.667V20.39s-.236-1.588-1.028-1.933v-.347l3.195-1.375c.313-.135 1.053-.71 1.248-1.03h.286v1.088c1.053-1.645 2.455-2.651 4.149-2.77 2.664-.195 3.339 2.879 3.255 5.016-.135 3.647-2.421 7.76-6.072 8.477-.421.085-.886-.007-1.332-.152v3.681c.002.002-.05 1.336.988 1.79z"/><path d="M34.659 38.333v.33l-5.414 2.558v-.43s.726-.71.726-2.668V25.897s-.237-1.59-1.03-1.935v-.345l3.205-1.377c.313-.133 1.053-.71 1.248-1.038h.28V22.3c1.06-1.648 2.452-2.651 4.148-2.777 2.664-.188 3.33 2.878 3.254 5.023-.135 3.638-2.411 7.753-6.061 8.47-.43.084-.894 0-1.34-.153v3.691c-.002-.004-.045 1.33.984 1.779zm29.806-24.857l-6.67 3.25s-.051 2.33 2.04 2.33 4.654-3.3 4.654-3.3l.236.127-.809 3.14s-3.584 3.513-6.796 3.513c-3.221 0-3.322-4.561-3.322-4.561s-.21-5.124 4.755-8.166c4.968-2.987 6.174 1.758 5.912 3.667z"/><path d="M28.925 29.72l-6.67 3.25s-.051 2.33 2.04 2.33S28.949 32 28.949 32l.236.135-.809 3.14s-3.585 3.505-6.806 3.505c-3.211 0-3.322-4.55-3.322-4.55s-.202-5.133 4.763-8.165c4.97-2.98 6.175 1.748 5.914 3.657z"/><path d="M18.823 40.012v.313l-8.49 3.909v-.362s1.171-1.3 1.171-3.445v-17.15s.085-3.31-1.635-3.968v-.285l9.275-4.273c5.218-2.416 6.787.059 6.998 2.498.27 3.049-.994 6.61-3.878 8.327-1.407.835-2.843 1.62-4.3 2.229v-.514c1.982-1.537 3.145-4.137 3.078-6.695-.034-1.124-1.137-2.6-2.58-1.884l-1.872.939v16.793c0-.002-.053 4.118 2.233 3.568zm51.183-23.54v.236L64.795 19.2v-.422s.59-.794.59-2.306V9.068s-.118-1.047-1.012-1.62l3.684-1.697s.641-.355.928-.777l.195.203v1.097s1.255-2.61 3.078-2.61v3.2s-2.233.388-3.061 2.407v5.724s0 .99.809 1.477zm-22.244-3.664v.236l-5.21 2.492v-.422s.59-.794.59-2.306V5.404s-.119-1.047-1.005-1.621l3.676-1.697s.641-.352.928-.776l.202.202V2.61S48.2 0 50.02 0v3.2s-2.243.387-3.06 2.406v5.725c.002 0 .002.987.802 1.477zM34.22 19.369l-7.124 3.36v-.438s.901-.71.901-3.209V6.772s-.125-1.69-1.221-1.57v-.288l7.319-3.36c3.163-1.453 7.8-.49 7.8 4.364v1.807c-.002 5.32-3.476 9.66-7.675 11.644zM11.193 54.63s-.582.16-.708.352c-.127.195-.354.162-.64.195-.287.036-.287.447-.675.447-.38 0-.769.103-.86.424-.102.32-.514.608-.937.666-.413.068-.894-.058-.379-.38.515-.323.058-.549.058-.71 0-.16.068-.574.32-.674.263-.093.836-.641.836-.641s.195-.287-.125-.321c-.32-.034-.547-.092-.641.127-.092.228-.64 1.19-.64 1.19s-.71-.092-.835.355c-.125.446-.481.835-.64.895-.16.067-.355-.16-.608.035-.253.196-.32-.38-.573-.06-.262.321-.836.287-.836.287s.253-.902-.067-.583c-.32.32-.928.803-1.35.777-.413-.034-.64.026-.8.22-.159.192-.7.033-.7.033l-.39-.389s.48-.32.64-.574c.162-.253.482-.767.642-1.054.159-.295.125-.616.446-.71.32-.1.388-.388.388-.675 0-.285-.48-.253-.641-.067 0 0 0-.381.286-.642a36.523 36.523 0 001.316-1.25c.253-.253.354-.253.354.036 0 .285.058.835.354.835.287 0 .607-.263.675-.55.06-.285.64-.927.38-1.122-.253-.195-.573-.127-.7.126-.136.26-.514.133-.196-.22.32-.354.608-.87.735-1.124.125-.262.388-.514.927-.641.55-.135 2.792-.71 3.433-1.064.641-.353 2.183-1.317 3.431-1.696 1.248-.389.961-.55 1.855-.642.902-.101 1.67-.642 2.15-.964.48-.321.893-.674.893-.321v.06s.229-.381.868-.803c.64-.415 1.568-.608 2.115-.608.547 0 .675-.094.868-.287.185-.195.508-.353.64-.066.126.285.608.066.827-.094.229-.161.388-.388.195-.583-.195-.186-.414-.608-.195-.702.229-.101.49-.101.49.161 0 .254.187.736.38.7.194-.024.159-.927.547-.7.38.22.927-.101 1.5-.287.583-.195 1.063-.835 1.097-.352.024.48.573-.136.835-.297.253-.16.574-1.02 1.087-.77.514.263.514.355.195.609-.32.262-.354.675-.32 1.097.026.415.159.38.64.195.482-.195 3.525-1.476 3.812-1.638.287-.16 2.243-1.123 2.243-1.123s.286-.102.159-.389c-.126-.287-.092-.673-.388-.71-.287-.025-.766-.607-.48-1.123.295-.514.456-.861.456-.22 0 .644.219.736.48.449.252-.287.414-.355.54-.094.125.253.286.058.48-.101.196-.162.48-.06.642.126.159.195.294-.059.354-.321.067-.256.26-1.286.927-1.158.675.135 1.407.135 1.407-.126 0-.253-.16-.48.092-.48.253 0 .48.227.414.767l.48-.026v.929l6.19-2.794s.606-.126.447-.803c-.16-.677-.06-.514-.32-.54-.253-.034-.574-.548-.347-.835.22-.295.38-.871.506-.456.135.422.354.972.354.972s.262.414.448-.295c.195-.702.352-1.054.708-1.317.352-.253.894-.447 1.029-.642.125-.188.219-.482.54-.347.32.126.159.285-.126.48-.287.188-.768.644-.482.862.287.229.414.262.547.103.128-.162.287-.23.287.16 0 .38-.034.86.354.86.379 0 .574-.285.675-.673.092-.381.06-.77.448-.415.378.353.32-.094.32-.094s.058-.388.514-.294c.445.101 1.247-.026 1.534-.253a52.017 52.017 0 011.383-.997s.448-.354.607.16c0 0 .195-.321.38-.321.195 0 0-.801.297-.253.286.54 1.373-.871 2.917-1.064 0 0 .414-.22.573.067.16.287.355-.48.834-.32.48.16.516-.353.995-.38.482-.035 1.602-.093 1.602-.641 0-.54-.067-.736-.296-.77-.219-.033-.159-.285.195-.412.354-.136.388.666.514 1.122.127.448.286.127.515-.102.227-.22 1.407-1.088 1.855-.962.455.125.8.034.937.48.125.448.32 0 .32-.218 0-.229-.135-1.285.446-1.512.574-.229.735-.195.995.034.253.22.38-.034.54.54.16.584.513.321.802.162.294-.162 1.222-1.023 1.795-1.023.583 0 .421-.263.421-.263s0-.446.48.036c.482.48.287.263.735.034.448-.227.901-.803.995-.227.091.583.414.352.64-.026.23-.389.23-.972.894-1.192.675-.227 1.51-.514 1.636-.743.135-.22.262-.347.514-.347.262 0 .547-.068.547-.32 0-.264.06-.618.286-.136.227.482.574 1.223-.387 1.58-.962.353-1.73.379-2.05.379-.32 0-.641-.094-.446.354l.446 1.03s-.868-.067-.995.286c-.128.354-.607 1.157-.641 1.698-.034.548-.379.066-.379-.128 0-.193-.421-1.02-.742-1.283-.32-.254-.412-.254-.513.034-.092.287-.574-.068-.641.287-.058.354-.32.482-.64.482-.321 0-.928.447-.381.674.54.228 1.053.414 1.053.414s.64.23-.195.355c-.836.125-1.821.195-2.21.125-.387-.058-1.028-.125-1.028.415 0 .548-.125.736-.482.929-.344.195-.573.48-.573.48s-.768-.446-1.122-.54c-.354-.101-.514.094-.547.415-.034.32.033.55-.287.641-.32.094-1.19.255-1.602.482-.414.228-.995.355-1.156.768 0 0-.574-.22-.894.161-.32.389-1.602 1.098-2.436 1.098-.834 0-2.79.803-3.433 1.214l-.195-.285s-1.956.895-1.956 1.155c0 0-.734-.135-1.407.254-.675.388-.735.482-.482 1.352 0 0-1.212-.16-1.508.093-.287.253-1.18.735-1.248 1.157-.06.413-.448.066-.48-.161-.035-.227.034-.422.422-.548.38-.128.185-.516-.101-.516-.287 0-1.41.32-1.636.516-.22.195-.735.388-.834.127-.094-.255-.508-.127-.665.196-.161.32-.708.641-.135.835.583.195 1.35.352 1.51.227.16-.126.641-.997.641-.642s-.16.861-.513 1.088c-.354.23-.482-.253-1.342-.16 0 0-.294.353-.294.642 0 0-.641.389-.802.575-.16.195-.641-.218-.894-.286-.262-.06-.708-.195-.961.068-.262.253.06.54-.262.673-.321.126-.701.736-1.408.77-.7.034-2.243.48-2.47.606-.219.127-.665.287-.665-.254 0-.547-.421-.388-.481-.033-.068.353-.034 1.03-.574 1.283-.54.253-1.088.126-1.341.287-.26.16-1.67 1.19-1.99 1.351-.32.161-3.845 1.959-9.555 4.263l-.32-.32c.058.087-7.05 4.461-14.318 7.29z"/><path d="M33.673 25.195v5.7c.311.049.631.085.935 0 1.518-.398 2.192-1.992 2.192-3.548v-2.482c0-.989-.64-1.638-1.34-1.63-.946.018-1.425.93-1.787 1.96zM25.09 29.13l-2.86 1.409c.078-.878.659-1.96 1.492-2.374.499-.242 1.333-.319 1.368.965zm7.293-11.881V5.666c4.358-3.606 5.067 1.75 5.009 3.86-.075 3.072-1.18 6.727-5.009 7.723zm28.247-4.364l-2.85 1.409c.068-.878.65-1.967 1.492-2.372.498-.253 1.332-.328 1.358.963zm-14.915 6.812v5.7c.313.059.624.085.928.008 1.517-.405 2.2-2 2.2-3.555v-2.48c0-.997-.642-1.648-1.34-1.639-.945.017-1.436.936-1.788 1.966zM71.726 15.155l.16-.075-.244-.524.404-.185c.253-.119.287.142.379.277l.094.143.195-.092c-.12-.075-.111-.109-.195-.26-.118-.204-.128-.23-.296-.247.084-.152.1-.227.024-.379-.142-.277-.345-.229-.53-.144l-.547.253.556 1.233z"/><path d="M71.786 13.813c.092-.041.253-.094.328.133.06.162-.034.237-.144.288l-.388.18-.195-.424.399-.177z"/></g><defs><clipPath id="ajclip0_81_70"><path d="M0 0h80v57.325H0z"/></clipPath></defs></svg><svg viewBox="0 0 17 32" id="icon-facebook" xmlns="http://www.w3.org/2000/svg"><path d="M13.33 5.313h2.92V.225C15.748.156 14.014 0 11.996 0 7.783 0 4.897 2.65 4.897 7.519V12H.25v5.688h4.648V32h5.699V17.69h4.46L15.764 12h-5.17V8.083c.002-1.644.445-2.77 2.735-2.77z"/></svg><svg viewBox="0 0 80 59" id="icon-fanta" xmlns="http://www.w3.org/2000/svg"><g opacity=".5" clip-path="url(#alclip0_81_54)"><path d="M34.438 58.701c16.159 0 29.258-13.14 29.258-29.35S50.596 0 34.438 0C18.279 0 5.18 13.14 5.18 29.35s13.1 29.351 29.258 29.351z"/><path d="M0 16.311l16.069-1.682s-5.753-4.665-6.376-6.83c0 0-.24-1.2 1.677-1.83 1.918-.63 10.07-3.848 10.07-3.848s11.752-3.656 17.265 10.683l9.83-1.54v1.54L65.8 12.32l.623 6.013h4.316l5.18 17.945-22.538 17.56s-5.18 4.473-16.544 4.714L3.89 45.421 0 16.31z"/><path d="M11.703 7.893s6.573-2.5 7.098-3.031c.573-.576 8.392-3.514 13.812 1.2 0 0 3.836 3.754 5.038 8.276l2.3 4.714 1.196 2.214s.334.817 0 .965c-.333.148-2.78-3.755-2.78-3.755l-1.104-1.59s-.962-1.249-3.743-.673c-2.781.575-7.048 1.057-10.119.531-3.016-.58-10.119-6.643-11.698-8.851z"/><path d="M24.172 16.695c-3.071-.532-10.168-6.594-11.753-8.802 0 0 6.573-2.5 7.097-3.031.29-.29 2.83-1.349 5.994-1.442-3.453-.098-6.376 1.107-6.715 1.442-.568.575-7.092 3.03-7.092 3.03 1.585 2.264 8.682 8.326 11.753 8.803 1.054.192 2.207.241 3.404.241-.962-.05-1.874-.098-2.688-.24z"/><path d="M17.457 9.575s3.021-1.49 4.65 0c3.212 2.933 10.167 4.473 11.511 4.188 0 0-6.955 1.59-8.966.482-2.639-1.447-4.223-3.42-7.195-4.67zM2.448 18.476L6.19 44.215l5.513-.384-.863-11.066 5.513-.482-.721-4.812-5.513.723-.48-4.664 6.714-1.2-.962-6.161-12.943 2.307zm28.679 2.165l2.639 21.025 5.13-.575-.72-10.584 8.391 9.718 3.983-.483-3.12-25.497-5.66.625 1.197 10.682-6.568-6.018-5.272 1.107z"/><path d="M36.4 20.017l6.572 6.012-.049-.532-6.524-5.963-5.278 1.107.05.433 5.228-1.058zm11.03-5.295l3.071 25.02h.05l-3.12-25.497-5.66.625.098.482 5.562-.63zm-9.255 16.262l.721 10.101-.672-10.101h-.049zM48.873 15.204l.716 5.678 3.355.1 1.535 17.703 6.376-.143-.623-18.043 4.459-.335-.864-6.16-14.954 1.2z"/><path d="M49.447 15.78l4.557-.625 9.829-1.156-14.965 1.2.72 5.684h.482l-.623-5.103zm4.076 5.777l-.53-.05 1.486 17.178.53-.05-1.486-17.078zM24.51 19.293l-5.42.625-2.3 23.48 4.317-.24 1.103-6.255 3.12-.383 2.535 5.771 4.557-.625-7.912-22.373zm-2.398 13.615l.623-4.089h.961l1.437 3.754-3.021.335z"/><path d="M19.232 20.11l5.322-.768-.05-.049-5.37.625-2.3 23.431.961-.05 1.437-23.19zm9.496 22.033l-2.688-5.678-.623.099 2.448 5.727 4.557-.625v-.142l-3.694.62zM69.734 20.882l-7.196 1.108.24 16.02 3.836-.383.24-4.089 2.159-.241 1.677 3.365 4.076-.142-5.032-15.638zm-1.727 9.236c-1.344.099-1.677-.674-1.918-1.442l3.12-.334c0-.005.142 1.677-1.202 1.776z"/><path d="M63.5 22.324l6.474-.724-.24-.767-7.196 1.107.24 15.972h.334l.388-15.588zm6.376 6.687l-.765.05c-.098.481-.383 1.008-1.153 1.057-.382.05-.721-.05-.962-.143.24.433.672.768 1.585.768 1.344-.05 1.295-1.732 1.295-1.732zm-.383 4.861l-.142.05 1.344 2.696h.05l-1.252-2.746zM3.644 27.186l2.688 17.029 1.104-.099-3.12-16.454-.672-.476zM77.552 34.399l-.431.098-.05-.142 1.006-.192.05.142-.432.099.19 1.25-.19.049-.143-1.304zm2.159.29c-.05-.192-.099-.433-.142-.575 0 .191-.05.334-.099.575l-.142.724h-.142l-.333-.625c-.099-.192-.191-.335-.24-.532.049.192.049.384.098.625l.049.575-.191.05-.142-1.398.24-.05.333.626c.099.142.142.29.24.433 0-.143.05-.29.05-.483l.142-.723.24-.05.334 1.349-.192.05-.103-.571z"/></g><defs><clipPath id="alclip0_81_54"><path d="M0 0h80v58.696H0z"/></clipPath></defs></svg><svg viewBox="0 0 32 29" id="icon-favourite" xmlns="http://www.w3.org/2000/svg"><path d="M29.665 2.777C28.087.987 25.897 0 23.5 0c-3.372 0-5.506 2.014-6.703 3.703-.311.438-.575.878-.797 1.292a12.245 12.245 0 00-.797-1.292C14.006 2.013 11.872 0 8.5 0 6.103 0 3.913.986 2.335 2.777.829 4.486 0 6.774 0 9.22c0 2.662 1.04 5.139 3.272 7.793 1.994 2.373 4.864 4.818 8.187 7.65a385.452 385.452 0 013.883 3.34l.04.035a.935.935 0 001.236 0l.04-.035c1.364-1.193 2.644-2.284 3.883-3.34 3.323-2.832 6.193-5.277 8.187-7.65C30.96 14.36 32 11.883 32 9.22c0-2.446-.83-4.734-2.335-6.443zm-10.34 20.46c-1.068.909-2.167 1.845-3.325 2.852-1.158-1.007-2.257-1.943-3.325-2.853-6.503-5.542-10.8-9.203-10.8-14.016 0-1.99.663-3.837 1.866-5.203A6.258 6.258 0 018.5 1.875c2.57 0 4.232 1.584 5.174 2.912a11.113 11.113 0 011.435 2.854.937.937 0 001.782 0c.15-.461.591-1.662 1.436-2.854.94-1.328 2.602-2.912 5.173-2.912 1.851 0 3.541.76 4.759 2.142 1.203 1.366 1.866 3.213 1.866 5.203 0 4.813-4.297 8.474-10.8 14.016z"/></svg><svg viewBox="0 0 35 35" id="icon-grid-layout-2" xmlns="http://www.w3.org/2000/svg"><path d="M32.4 28h-7.8c-1.436 0-2.6.627-2.6 1.4v4.2c0 .773 1.164 1.4 2.6 1.4h7.8c1.436 0 2.6-.627 2.6-1.4v-4.2c0-.773-1.164-1.4-2.6-1.4zM10.4 28H2.6c-1.436 0-2.6.627-2.6 1.4v4.2c0 .773 1.164 1.4 2.6 1.4h7.8c1.436 0 2.6-.627 2.6-1.4v-4.2c0-.773-1.164-1.4-2.6-1.4zM32.4 14h-7.8c-1.436 0-2.6.627-2.6 1.4v4.2c0 .773 1.164 1.4 2.6 1.4h7.8c1.436 0 2.6-.627 2.6-1.4v-4.2c0-.773-1.164-1.4-2.6-1.4zM10.4 14H2.6c-1.436 0-2.6.627-2.6 1.4v4.2c0 .773 1.164 1.4 2.6 1.4h7.8c1.436 0 2.6-.627 2.6-1.4v-4.2c0-.773-1.164-1.4-2.6-1.4zM32.4 0h-7.8C23.164 0 22 .627 22 1.4v4.2c0 .773 1.164 1.4 2.6 1.4h7.8c1.436 0 2.6-.627 2.6-1.4V1.4C35 .627 33.836 0 32.4 0zM10.4 0H2.6C1.164 0 0 .627 0 1.4v4.2C0 6.373 1.164 7 2.6 7h7.8c1.436 0 2.6-.627 2.6-1.4V1.4C13 .627 11.836 0 10.4 0z"/></svg><svg viewBox="0 0 36 34" id="icon-grid-layout-3" xmlns="http://www.w3.org/2000/svg"><path d="M6.044 26.445H1.511c-.834 0-1.511.676-1.511 1.51v4.534C0 33.324.677 34 1.511 34h4.533c.835 0 1.512-.676 1.512-1.511v-4.533c0-.835-.677-1.511-1.512-1.511zM20.211 26.445h-4.533c-.835 0-1.511.676-1.511 1.51v4.534c0 .835.676 1.511 1.51 1.511h4.534c.835 0 1.511-.676 1.511-1.511v-4.533c0-.835-.676-1.511-1.51-1.511zM34.378 26.445h-4.534c-.834 0-1.51.676-1.51 1.51v4.534c0 .835.676 1.511 1.51 1.511h4.534c.834 0 1.51-.676 1.51-1.511v-4.533c0-.835-.676-1.511-1.51-1.511zM6.044 13.222H1.511C.677 13.222 0 13.9 0 14.733v4.534c0 .834.677 1.51 1.511 1.51h4.533c.835 0 1.512-.676 1.512-1.51v-4.534c0-.834-.677-1.51-1.512-1.51zM20.211 13.222h-4.533c-.835 0-1.511.677-1.511 1.511v4.534c0 .834.676 1.51 1.51 1.51h4.534c.835 0 1.511-.676 1.511-1.51v-4.534c0-.834-.676-1.51-1.51-1.51zM34.378 13.222h-4.534c-.834 0-1.51.677-1.51 1.511v4.534c0 .834.676 1.51 1.51 1.51h4.534c.834 0 1.51-.676 1.51-1.51v-4.534c0-.834-.676-1.51-1.51-1.51zM6.044 0H1.511C.677 0 0 .677 0 1.511v4.533c0 .835.677 1.512 1.511 1.512h4.533c.835 0 1.512-.677 1.512-1.512V1.511C7.556.677 6.879 0 6.044 0zM20.211 0h-4.533c-.835 0-1.511.677-1.511 1.511v4.533c0 .835.676 1.512 1.51 1.512h4.534c.835 0 1.511-.677 1.511-1.512V1.511c0-.834-.676-1.511-1.51-1.511zM34.378 0h-4.534c-.834 0-1.51.677-1.51 1.511v4.533c0 .835.676 1.512 1.51 1.512h4.534c.834 0 1.51-.677 1.51-1.512V1.511c0-.834-.676-1.511-1.51-1.511z"/></svg><svg viewBox="0 0 32 32" id="icon-instagram" xmlns="http://www.w3.org/2000/svg"><g clip-path="url(#apclip0_1922_1573)"><path d="M16.005 7.784a8.21 8.21 0 00-8.21 8.21 8.21 8.21 0 008.21 8.211 8.21 8.21 0 008.211-8.21 8.21 8.21 0 00-8.21-8.21zm0 13.54a5.328 5.328 0 01-5.329-5.33 5.328 5.328 0 015.33-5.329 5.328 5.328 0 015.329 5.33 5.327 5.327 0 01-5.33 5.33z"/><path d="M22.597.101c-2.944-.137-10.236-.13-13.182 0C6.825.223 4.54.848 2.7 2.69-.377 5.767.016 9.913.016 15.995c0 6.224-.347 10.274 2.684 13.305 3.09 3.088 7.296 2.684 13.305 2.684 6.166 0 8.294.004 10.474-.84 2.964-1.15 5.201-3.8 5.42-8.559.138-2.945.13-10.236 0-13.182C31.635 3.785 28.62.379 22.597.1zm4.66 27.163C25.24 29.28 22.441 29.1 15.967 29.1c-6.667 0-9.34.099-11.291-1.857-2.247-2.236-1.84-5.827-1.84-11.27 0-7.367-.756-12.673 6.637-13.051 1.699-.06 2.199-.08 6.475-.08l.06.04c7.105 0 12.68-.744 13.015 6.648.076 1.686.093 2.193.093 6.462-.001 6.59.124 9.279-1.859 11.27z"/><path d="M24.541 9.379a1.919 1.919 0 100-3.838 1.919 1.919 0 000 3.838z"/></g><defs><clipPath id="apclip0_1922_1573"><path d="M0 0h32v32H0z"/></clipPath></defs></svg><svg viewBox="0 0 200 60" id="icon-logo" xmlns="http://www.w3.org/2000/svg"><path d="M78.9 30.18c-2.109 0-3.863-.252-5.263-.756-1.382-.504-2.418-1.335-3.108-2.492-.672-1.176-1.008-2.744-1.008-4.704 0-1.997.345-3.565 1.036-4.704.71-1.139 1.754-1.95 3.136-2.436 1.4-.485 3.136-.728 5.208-.728 2.128 0 3.883.252 5.264.756 1.381.485 2.408 1.307 3.08 2.464.69 1.139 1.036 2.688 1.036 4.648 0 1.997-.355 3.584-1.064 4.76-.69 1.157-1.736 1.979-3.136 2.464-1.382.485-3.108.728-5.18.728zm0-2.324c1.27 0 2.316-.075 3.137-.224.84-.168 1.484-.448 1.932-.84.467-.41.784-.97.952-1.68.186-.728.28-1.661.28-2.8 0-1.157-.093-2.1-.28-2.828-.168-.747-.486-1.325-.952-1.736-.448-.41-1.092-.69-1.932-.84-.822-.168-1.867-.252-3.136-.252-1.25 0-2.287.084-3.108.252-.822.15-1.466.43-1.932.84-.467.41-.794.99-.98 1.736-.168.728-.252 1.67-.252 2.828 0 1.139.093 2.072.28 2.8.186.71.513 1.27.98 1.68.467.392 1.11.672 1.932.84.821.15 1.848.224 3.08.224zm-1.483 4.172l.084-8.988-.084-10.556h2.996l-.112 8.624L80.413 32l-2.996.028zM92.225 32l.112-9.072-.112-10.444.616-.056 1.652-.14c.672-.056 1.41-.103 2.212-.14a50.111 50.111 0 012.324-.056c1.773 0 3.145.56 4.116 1.68.989 1.101 1.484 2.763 1.484 4.984 0 1.381-.177 2.53-.532 3.444-.355.896-.831 1.596-1.428 2.1a5.317 5.317 0 01-1.988 1.092 8.215 8.215 0 01-2.24.308c-.616 0-1.25-.019-1.904-.056a18.912 18.912 0 00-1.344-.084V32h-2.968zm6.356-8.736c.56 0 1.008-.037 1.344-.112.355-.075.635-.205.84-.392.28-.28.467-.775.56-1.484.112-.71.168-1.643.168-2.8 0-.933-.047-1.643-.14-2.128-.075-.504-.177-.859-.308-1.064-.131-.224-.261-.373-.392-.448-.168-.13-.448-.233-.84-.308a6.114 6.114 0 00-1.4-.14c-.635 0-1.241.028-1.82.084a24.49 24.49 0 00-1.4.168v8.316c.187.019.607.075 1.26.168.672.093 1.381.14 2.128.14zM108.823 32V12.484h10.248v2.576l-8.596-.112 1.372-1.316-.224 8.288-1.288-1.092h8.036v2.492h-8.036l1.288-1.148.224 8.652-1.372-1.344 8.596-.056V32h-10.248zm14.71 0V12.484h2.968l-.084 9.464v8.82l-1.344-1.344h8.764l-1.344 1.344.028-8.68-.056-9.604h2.968l-.084 9.604.056 8.68-1.344-1.344h8.68l-1.344 1.344v-8.764l-.084-9.52h2.968V32h-20.748zm32.859.392a9.322 9.322 0 01-2.912-.448c-.915-.299-1.727-.821-2.436-1.568-.691-.747-1.232-1.783-1.624-3.108-.392-1.325-.588-3.015-.588-5.068 0-2.053.196-3.733.588-5.04.392-1.325.933-2.352 1.624-3.08.709-.747 1.521-1.26 2.436-1.54a9.322 9.322 0 012.912-.448c1.027 0 1.988.15 2.884.448.915.28 1.717.793 2.408 1.54.709.728 1.26 1.745 1.652 3.052.392 1.307.588 2.996.588 5.068 0 2.053-.196 3.743-.588 5.068-.392 1.325-.943 2.361-1.652 3.108-.691.747-1.493 1.27-2.408 1.568a9.061 9.061 0 01-2.884.448zm0-2.66c.747 0 1.4-.084 1.96-.252a2.537 2.537 0 001.372-1.008c.373-.523.644-1.279.812-2.268.187-.99.28-2.305.28-3.948 0-1.624-.084-2.93-.252-3.92-.168-1.008-.429-1.764-.784-2.268a2.633 2.633 0 00-1.4-1.064c-.56-.187-1.223-.28-1.988-.28-.803 0-1.484.093-2.044.28-.541.187-.989.541-1.344 1.064-.355.504-.616 1.26-.784 2.268-.168.99-.252 2.305-.252 3.948 0 1.624.084 2.93.252 3.92.168.99.429 1.745.784 2.268.373.504.84.84 1.4 1.008.56.168 1.223.252 1.988.252zM179.295 32l-7.756-10.108 7.196-9.408h3.584l-7.42 9.24v.168L183.047 32h-3.752zm-10.808 0l.084-9.912-.084-9.604h2.996V32h-2.996zM82.28 50.168c-.44 0-.856-.064-1.248-.192a2.496 2.496 0 01-1.044-.672c-.296-.32-.528-.764-.696-1.332-.168-.568-.252-1.292-.252-2.172 0-.88.084-1.6.252-2.16.168-.568.4-1.008.696-1.32.304-.32.652-.54 1.044-.66a3.996 3.996 0 011.248-.192c.44 0 .852.064 1.236.192.392.12.736.34 1.032.66.304.312.54.748.708 1.308.168.56.252 1.284.252 2.172 0 .88-.084 1.604-.252 2.172-.168.568-.404 1.012-.708 1.332a2.41 2.41 0 01-1.032.672 3.884 3.884 0 01-1.236.192zm0-1.14c.32 0 .6-.036.84-.108.24-.072.436-.216.588-.432.16-.224.276-.548.348-.972.08-.424.12-.988.12-1.692 0-.696-.036-1.256-.108-1.68-.072-.432-.184-.756-.336-.972a1.128 1.128 0 00-.6-.456c-.24-.08-.524-.12-.852-.12-.344 0-.636.04-.876.12-.232.08-.424.232-.576.456-.152.216-.264.54-.336.972-.072.424-.108.988-.108 1.692 0 .696.036 1.256.108 1.68.072.424.184.748.336.972.16.216.36.36.6.432.24.072.524.108.852.108zm5.184.972v-8.364h1.272l-.036 3.972-.564-.42h4.428l-.564.42-.036-3.972h1.272V50h-1.272L92 45.872l.564.42h-4.428l.564-.42.036 4.128h-1.272zm7.4.168l-.215-.948c.112-.016.216-.032.312-.048.096-.024.176-.048.24-.072a.835.835 0 00.372-.24c.088-.104.156-.28.204-.528.056-.248.096-.608.12-1.08l.372-5.616h4.848V50h-1.272l.06-7.272h-2.472l-.312 4.644a8.46 8.46 0 01-.204 1.428c-.096.384-.264.676-.504.876-.168.144-.392.26-.672.348a2.613 2.613 0 01-.876.144zm7.432-.168l2.28-8.364h1.728l2.28 8.364h-1.296l-.648-2.556.672.444h-3.72l.648-.444-.636 2.556h-1.308zm1.956-2.628l-.432-.576h3.252l-.432.576-1.296-5.148.708.552h-1.212l.696-.552-1.284 5.148zM109.788 50v-8.364h1.224l-.048 4.248v2.292l3.096-6.54h1.752V50h-1.224l.048-3.852v-3.216L111.3 50h-1.512zm2.988-8.676c-.608 0-1.08-.144-1.416-.432-.328-.288-.508-.748-.54-1.38l.816-.036c.04.288.144.504.312.648.168.144.444.216.828.216.424 0 .72-.072.888-.216.168-.144.272-.36.312-.648l.72.036c-.016.424-.104.772-.264 1.044-.16.264-.38.46-.66.588-.272.12-.604.18-.996.18zM118.167 50v-8.364h1.272l-.036 3.972-.564-.42h4.428l-.564.42-.036-3.972h1.272V50h-1.272l.036-4.128.564.42h-4.428l.564-.42.036 4.128h-1.272zm7.413-3.396v-1.068h2.856v1.068h-2.856zM130.037 50l.288-8.364h1.74l1.74 5.244h.084l1.764-5.244h1.74l.288 8.364h-1.26l-.048-7.032h-.084l-1.716 5.136h-1.44l-1.704-5.136h-.084L131.297 50h-1.26zm8.762 0l2.28-8.364h1.728L145.088 50h-1.297l-.648-2.556.672.444h-3.72l.648-.444-.636 2.556h-1.308zm1.956-2.628l-.432-.576h3.252l-.432.576-1.296-5.148.708.552h-1.212l.696-.552-1.284 5.148zM146.292 50l.048-3.888-.048-4.476.264-.024.708-.06a26.058 26.058 0 011.944-.084c.76 0 1.348.24 1.764.72.424.472.636 1.184.636 2.136 0 .592-.076 1.084-.228 1.476-.152.384-.356.684-.612.9a2.279 2.279 0 01-.852.468 3.52 3.52 0 01-.96.132c-.264 0-.536-.008-.816-.024a8.106 8.106 0 00-.576-.036V50h-1.272zm2.724-3.744c.24 0 .432-.016.576-.048a.755.755 0 00.36-.168c.12-.12.2-.332.24-.636.048-.304.072-.704.072-1.2 0-.4-.02-.704-.06-.912-.032-.216-.076-.368-.132-.456a.513.513 0 00-.168-.192c-.072-.056-.192-.1-.36-.132a2.62 2.62 0 00-.6-.06c-.272 0-.532.012-.78.036-.248.024-.448.048-.6.072v3.564c.08.008.26.032.54.072.288.04.592.06.912.06zM158.037 50l-3.324-4.332 3.084-4.032h1.536l-3.18 3.96v.072L159.645 50h-1.608zm-4.632 0l.036-4.248-.036-4.116h1.284V50h-1.284zm7.231 0v-8.364h4.392v1.104l-3.684-.048.588-.564-.096 3.552-.552-.468h3.444v1.068h-3.444l.552-.492.096 3.708-.588-.576 3.684-.024V50h-4.392zm7.408 0l.024-7.296-2.34.036v-1.104h5.916v1.104l-2.364-.036.024 7.296h-1.26z"/><path opacity=".2" d="M54.648 59.067c0-.512-11.474-.933-25.611-.933-14.138 0-25.612.421-25.612.933S14.9 60 29.037 60c14.17 0 25.611-.421 25.611-.933z"/><path d="M29.398 11.81c11.146 0 20.187 8.277 20.187 18.481v18.482H29.398c-11.145 0-20.186-8.278-20.186-18.482V11.81h20.186z"/><path opacity=".3" d="M46.692 20.78c-1.677 1.775-2.696 4.093-2.696 6.622 0 3.762 2.236 7.043 5.556 8.819v-5.93c0-3.461-1.019-6.712-2.86-9.512z"/><path d="M38.769 13.947c-3.157 1.655-5.26 4.756-5.26 8.338 0 5.297 4.7 9.601 10.487 9.601 2.038 0 3.945-.541 5.556-1.474v-.12c0-7.105-4.372-13.275-10.783-16.345z"/><path opacity=".5" d="M22.922 15.39c-5.195 0-9.962 1.656-13.71 4.456V30.32c0 10.205 9.04 18.482 20.186 18.482h9.666c3.518-3.552 5.655-8.247 5.655-13.425 0-11.046-9.764-19.986-21.797-19.986z"/><path d="M49.552 48.743l-20.154.03c-11.145 0-20.186-8.278-20.186-18.482V11.84l40.34 36.903z"/><path opacity=".3" d="M12.335 18.432c0 14.026 12.428 25.374 27.716 25.374 1.315 0 2.597-.09 3.846-.24L12.598 14.94a24.621 24.621 0 00-.263 3.492z"/><path opacity=".3" d="M49.552 48.773L9.376 11.99c4.734 6.471 10.192 13.033 15.748 18.45 4.34 4.215 16.866 13.636 24.428 18.332z"/><path opacity=".3" d="M22.395 23.88L9.212 11.84V30.32c0 8.157 5.786 15.08 13.775 17.519-3.419-3.161-5.523-7.495-5.523-12.251 0-4.515 1.874-8.609 4.931-11.71z"/><path opacity=".3" d="M40.347 40.345c-3.42 3.822-8.614 6.29-14.434 6.29-3.88 0-7.496-1.083-10.488-2.95 3.617 3.161 8.516 5.118 13.94 5.118h20.187v-.03l-9.205-8.428z"/><path opacity=".3" d="M10.395 22.887c0-2.98.56-5.87 1.611-8.519L9.212 11.84V30.32c0 10.204 9.04 18.482 20.186 18.482h20.187v-.03l-2.005-1.836a29.736 29.736 0 01-9.337 1.474c-15.387-.03-27.848-11.438-27.848-25.524z"/><path d="M49.224 52.355c1.413-.362 2.893.421 3.254 1.715.395 1.295-.46 2.65-1.907 2.98-1.413.361-2.893-.421-3.254-1.715-.362-1.295.493-2.62 1.907-2.98zm-.526-1.836c-2.532.632-4.044 2.98-3.354 5.297.657 2.318 3.255 3.702 5.786 3.07 2.532-.632 4.044-3.01 3.354-5.297-.658-2.318-3.255-3.672-5.787-3.07z"/><path opacity=".5" d="M52.05 56.177a2.821 2.821 0 01-1.446.903c-1.414.36-2.893-.422-3.255-1.716a2.298 2.298 0 01.888-2.498c-.395-.512-.724-1.084-1.052-1.656-1.578 1.024-2.367 2.86-1.841 4.666.657 2.317 3.255 3.702 5.786 3.07 1.184-.301 2.137-.963 2.762-1.836-.625-.301-1.25-.602-1.841-.933z"/><path d="M10.165 52.355c1.413-.332 2.893.451 3.255 1.745.361 1.295-.494 2.65-1.907 2.98-1.414.331-2.894-.451-3.255-1.746-.362-1.294.493-2.648 1.907-2.98zm-.526-1.837c-2.532.602-4.044 2.98-3.387 5.298.658 2.318 3.255 3.702 5.787 3.1 2.531-.602 4.044-2.98 3.419-5.297-.69-2.318-3.288-3.703-5.82-3.1z"/><path opacity=".5" d="M12.96 56.207a2.596 2.596 0 01-1.447.873c-1.414.33-2.893-.452-3.255-1.746-.263-.963.132-1.926.888-2.498-.395-.512-.723-1.084-1.02-1.656-1.577.993-2.4 2.83-1.873 4.636.657 2.317 3.254 3.702 5.786 3.1 1.184-.271 2.17-.963 2.762-1.836-.658-.241-1.25-.542-1.841-.873z"/><path d="M10.494 10.546c-.625 0-1.15-.482-1.15-1.054 0-2.468-.757-4.334-2.204-5.568-2.334-2.017-5.852-1.806-5.885-1.806-.624.06-1.183-.392-1.25-.964C-.06.582.434.071 1.059.011c.197 0 4.537-.301 7.628 2.317 1.972 1.656 2.959 4.064 2.959 7.134 0 .602-.494 1.084-1.151 1.084z"/></svg><svg viewBox="0 0 49 29" id="icon-mastercard" xmlns="http://www.w3.org/2000/svg"><g clip-path="url(#arclip0_1922_1877)"><path d="M33.933 0a14.433 14.433 0 00-9.721 3.748A14.442 14.442 0 0014.495.003h-.093C6.444.055 0 6.529 0 14.498c0 8.001 6.494 14.494 14.494 14.494 3.737 0 7.145-1.417 9.716-3.745a14.336 14.336 0 01-1.482-1.584h2.993a14.492 14.492 0 01-1.472 1.553h-.002c-.012.013-.025.021-.037.032a14.44 14.44 0 009.728 3.749c8.005-.003 14.492-6.495 14.49-14.499v-.007C48.429 6.487 41.938-.002 33.933 0zM22.894 5.245h2.755c.406.492.783 1.01 1.125 1.552h-4.915a21.68 21.68 0 011.035-1.552zm-1.891 3.074h6.607c.235.502.443 1.021.625 1.553H20.22c.08-.15.36-.754.783-1.553zM5.917 18.19l.879-5.542-1.983 5.542H3.75l-.138-5.542-.939 5.542H1.184l1.234-7.35H4.67l.079 4.51 1.521-4.51h2.443l-1.217 7.35H5.917zm5.265-.012l.051-.587c-.024.003-.494.709-1.583.709-.57 0-1.49-.311-1.49-1.663 0-1.719 1.402-2.289 2.737-2.289.21 0 .663.038.663.038s.051-.105.051-.389c0-.467-.42-.531-.995-.531-1.013 0-1.682.271-1.682.271l.224-1.33s.812-.34 1.869-.34c.547 0 2.12.058 2.12 1.861l-.606 4.25h-1.359zm5.743-1.872c0 2.051-1.987 1.963-2.334 1.963-1.295 0-1.695-.179-1.732-.189l.206-1.35c.002-.012.65.235 1.371.235.416 0 .956-.041.956-.538 0-.744-1.932-.566-1.932-2.333 0-1.559 1.158-2.015 2.3-2.015.882 0 1.424.121 1.424.121l-.195 1.362s-.837-.069-1.054-.069c-.549 0-.848.12-.848.504-.001.772 1.838.394 1.838 2.309zm2.386.538c.137 0 .292-.047.398-.047l-.193 1.311c-.155.043-.594.199-1.157.203-.719.006-1.23-.396-1.23-1.308 0-.612.877-5.655.911-5.688h1.543l-.157.902h.77l-.197 1.453h-.817l-.434 2.677c-.033.213.026.497.563.497zm3.394-4.797c1.694 0 2.201 1.24 2.201 2.257 0 .407-.204 1.407-.204 1.407h-3.136s-.29 1.235 1.367 1.235c.777 0 1.639-.38 1.639-.38l-.272 1.487s-.498.254-1.63.254c-1.227 0-2.666-.519-2.666-2.699.001-1.889 1.149-3.561 2.701-3.561zm4.087 10.123H21.65c-.313-.5-.605-1.013-.856-1.552h6.843a14.886 14.886 0 01-.845 1.552zm-.345-3.969h-1.584l.963-5.982h1.437l-.138.867s.512-.943 1.203-.943c.201 0 .298.02.298.02-.205.418-.386.801-.574 1.79-1.072-.38-1.154 1.693-1.605 4.248zm6.035-.093s-.83.212-1.35.212c-1.842 0-2.777-1.271-2.777-3.196 0-2.903 1.733-4.449 3.514-4.449.805 0 1.738.378 1.738.378l-.252 1.635s-.631-.441-1.416-.441c-1.05 0-1.992 1.002-1.992 2.823 0 .897.439 1.733 1.535 1.733.521 0 1.276-.379 1.276-.379l-.276 1.684zm3.715.073l.052-.591c-.025.003-.495.709-1.583.709-.57 0-1.49-.311-1.49-1.663 0-1.719 1.402-2.289 2.736-2.289.21 0 .664.038.664.038s.052-.104.052-.388c0-.467-.42-.531-.996-.531-1.013 0-1.681.271-1.681.271l.224-1.33s.812-.34 1.87-.34c.546 0 2.12.058 2.119 1.861l-.606 4.25c-.001.003-1.361.003-1.361.003zm3.207.02H37.82l.963-5.982h1.438l-.138.867s.513-.943 1.204-.943c.201 0 .297.02.297.02-.204.418-.387.801-.574 1.79-1.073-.38-1.155 1.693-1.606 4.248zm4.729-.016l.067-.551s-.512.646-1.438.646c-1.283 0-1.912-1.239-1.912-2.505 0-1.958 1.178-3.665 2.592-3.665.91.002 1.491.805 1.491.805l.334-2.065 1.547-.003-1.18 7.338h-1.501zm3.052-.207a.461.461 0 01-.406.237.471.471 0 01-.404-.237.464.464 0 010-.466.475.475 0 01.404-.236c.08 0 .156.021.23.062a.461.461 0 01.176.64zM47.061 22.4c-.01-.006-.019-.017-.035-.023a.245.245 0 00-.08-.01h-.094v.15h.1c.047 0 .078-.003.096-.02a.066.066 0 00.025-.055.075.075 0 00-.012-.041z"/><path d="M11.022 15.495c-1.13 0-1.36.508-1.36.93 0 .219.125.583.604.583.93 0 1.122-1.218 1.092-1.477-.044-.01-.072-.035-.336-.036zM22.711 13.428c-.841 0-1.003.957-1.003 1.058h1.713c0-.077.161-1.058-.71-1.058zM43.709 13.595c-.68 0-1.216.788-1.215 1.985 0 .73.26 1.198.816 1.198.836 0 1.239-1.091 1.239-1.904 0-.897-.285-1.279-.84-1.279zM47.115 17.552a.377.377 0 00-.146-.145.381.381 0 00-.528.145.403.403 0 00-.053.195c0 .067.018.133.05.194a.409.409 0 00.34.2c.067 0 .133-.02.193-.054a.388.388 0 00.144-.535zm-.217.452l-.045-.078a.404.404 0 00-.084-.118.102.102 0 00-.066-.019h-.046v.214h-.084v-.504h.175c.059 0 .103.005.128.016a.143.143 0 01.064.048.116.116 0 01.023.074.136.136 0 01-.04.096c-.026.029-.062.041-.104.046.02.008.033.017.043.026a.51.51 0 01.074.099l.062.1h-.1zM36.039 15.495c-1.131 0-1.36.508-1.36.93 0 .219.124.583.604.583.929 0 1.121-1.218 1.092-1.477-.045-.01-.073-.035-.336-.036z"/><path d="M46.864 17.602a.091.091 0 00-.034-.025.283.283 0 00-.082-.01h-.091v.153h.099c.047 0 .078-.006.097-.021a.078.078 0 00.024-.056.067.067 0 00-.013-.041z"/></g><defs><clipPath id="arclip0_1922_1877"><path d="M0 0h49v29H0z"/></clipPath></defs></svg><svg viewBox="0 0 16 2" id="icon-minus" xmlns="http://www.w3.org/2000/svg"><path d="M15.333 0H.667a.667.667 0 100 1.333h14.666a.667.667 0 100-1.333z"/></svg><svg viewBox="0 0 26 17" id="icon-nav_icon" xmlns="http://www.w3.org/2000/svg"><path d="M.917 0h24.896v1H.917zM.917 8h19.917v1H.917zM.917 16h24.896v1H.917z"/></svg><svg viewBox="0 0 80 31" id="icon-pepsi" xmlns="http://www.w3.org/2000/svg"><g opacity=".5" clip-path="url(#auclip0_81_46)"><path d="M15.226 30.337C6.906 30.337.139 23.564.139 15.24c0-8.326 6.768-15.1 15.087-15.1 8.318 0 15.086 6.774 15.086 15.1 0 8.325-6.768 15.098-15.086 15.098z"/><path d="M15.226.278c8.255 0 14.948 6.698 14.948 14.96 0 8.263-6.693 14.96-14.948 14.96-8.256 0-14.949-6.697-14.949-14.96C.277 6.977 6.97.279 15.226.279zm0-.277C6.83 0 0 6.836 0 15.239c0 8.402 6.83 15.237 15.226 15.237 8.395 0 15.225-6.836 15.225-15.237C30.451 6.836 23.621 0 15.226 0zM79.72 9.102c.168-.196.28-.42.28-.7a1.138 1.138 0 00-.28-.755 1.015 1.015 0 00-.728-.309c-.28 0-.503.112-.728.309-.195.196-.28.448-.28.756 0 .28.085.503.28.7.225.195.449.279.728.279.28 0 .531-.084.728-.28zm.057 10.304v-9.044h-1.512l.028 9.044h1.484zm-3.5-8.595l-.251-.113c-.672-.392-1.484-.588-2.463-.588-1.064 0-1.931.252-2.575.756-.336.252-.56.504-.728.84a1.968 1.968 0 00-.252.98c0 .616.28 1.12.785 1.568.475.42 1.174.756 2.098 1.036.783.252 1.315.504 1.65.756.281.28.45.588.45.98 0 .42-.225.756-.617 1.036-.392.224-.953.364-1.651.364-.756 0-1.511-.196-2.295-.56l-.196-.14-.644 1.176.225.112c.867.42 1.82.615 2.854.615 1.12 0 2.044-.224 2.771-.727.364-.225.616-.532.812-.84.195-.364.28-.756.28-1.148v-.029c0-.672-.28-1.26-.812-1.735-.447-.392-1.175-.728-2.127-1.008-.728-.253-1.26-.505-1.568-.7-.335-.253-.475-.533-.475-.84 0-.365.14-.644.448-.896.336-.224.783-.365 1.37-.365.813 0 1.484.14 2.016.477l.196.14.7-1.147zm-9.123.671c-1.036-.896-2.323-1.371-3.807-1.371-1.456 0-2.659.447-3.638 1.315-1.092.98-1.651 2.324-1.651 4.088v7.028h1.454v-4.536a4.571 4.571 0 001.68 1.177c.672.307 1.4.447 2.184.447 1.483 0 2.742-.447 3.778-1.4 1.064-.924 1.594-2.044 1.594-3.36 0-1.344-.53-2.463-1.594-3.388zm-3.807-.112c1.092 0 2.043.337 2.77 1.008.757.672 1.148 1.511 1.148 2.52 0 .952-.336 1.736-1.007 2.408-.728.7-1.707 1.064-2.883 1.064s-2.128-.364-2.883-1.064c-.7-.7-1.035-1.484-1.035-2.407 0-.925.336-1.737 1.035-2.41.728-.727 1.68-1.119 2.855-1.119zm-7.613.56c-.979-1.232-2.378-1.82-4.254-1.82-1.4 0-2.604.392-3.639 1.232-1.119.868-1.678 2.044-1.678 3.5 0 .812.223 1.624.699 2.38.42.728 1.064 1.316 1.931 1.764.868.42 1.791.616 2.799.616.952 0 1.847-.196 2.715-.616.867-.448 1.51-1.036 1.93-1.764l.28-.476h-1.622c-.337.476-.813.868-1.428 1.176a4.337 4.337 0 01-1.931.448c-.896 0-1.651-.225-2.323-.672a3.688 3.688 0 01-1.4-1.848 7.622 7.622 0 012.856-.56l1.51.167 2.352.224c.727 0 1.344-.112 1.903-.28.224-.083.364-.196.42-.336.084-.111.084-.307.029-.532-.17-1.007-.533-1.875-1.149-2.602zm-.391 2.297l.028.056-.812.111-1.763-.167-2.463-.197h-.42a8.193 8.193 0 00-2.211.448c.111-1.036.616-1.848 1.455-2.436.7-.448 1.484-.7 2.323-.7 1.315 0 2.323.42 3.079 1.26.392.505.671 1.036.784 1.625zM39.641 10.11c-1.428 0-2.66.448-3.639 1.316-1.091.98-1.623 2.324-1.623 4.088l-.028 7.027h1.511l-.028-4.535a4.69 4.69 0 001.652 1.176c.7.308 1.427.447 2.21.447 1.484 0 2.744-.447 3.78-1.4 1.063-.924 1.566-2.044 1.566-3.36 0-1.344-.503-2.463-1.54-3.387-1.062-.896-2.322-1.372-3.861-1.372zm-2.855 2.38c.756-.728 1.68-1.12 2.855-1.12 1.12 0 2.043.337 2.798 1.008.757.672 1.12 1.511 1.12 2.52 0 .952-.336 1.736-.98 2.408-.727.7-1.679 1.064-2.91 1.064-1.148 0-2.127-.364-2.883-1.064-.672-.7-1.008-1.484-1.008-2.407 0-.925.336-1.736 1.008-2.409z"/><path d="M23.773 3.902a3.67 3.67 0 01-.365-.316 14.157 14.157 0 00-8.182-2.59C7.366.996.996 7.372.996 15.238a14.193 14.193 0 002.816 8.506c4.762-1.407 8.916-3.854 12.477-7.392 3.556-3.52 6.054-7.686 7.484-12.45z"/><path d="M15.226 29.48c7.858 0 14.23-6.377 14.23-14.242 0-2.784-.8-5.38-2.18-7.574a.768.768 0 01-.096-.118c.29.956.436 1.95.435 2.948a9.922 9.922 0 01-1.107 4.578 10.36 10.36 0 01-2.983 3.457c-.995.734-2.189 1.356-3.594 1.866-1.118.41-2.573.833-4.376 1.243l-5.197 1.17a83.575 83.575 0 00-6.015 1.604 14.188 14.188 0 0010.883 5.068z"/></g><defs><clipPath id="auclip0_81_46"><path d="M0 0h80v30.476H0z"/></clipPath></defs></svg><svg viewBox="0 0 16 16" id="icon-plus" xmlns="http://www.w3.org/2000/svg"><g clip-path="url(#avclip0_17_93)"><path d="M15.2 7.2H8.8V.8a.8.8 0 00-1.6 0v6.4H.8a.8.8 0 000 1.6h6.4v6.4a.8.8 0 001.6 0V8.8h6.4a.8.8 0 000-1.6z"/></g><defs><clipPath id="avclip0_17_93"><path d="M0 0h16v16H0z"/></clipPath></defs></svg><svg viewBox="0 0 16 16" id="icon-plus-btn" xmlns="http://www.w3.org/2000/svg"><g clip-path="url(#awclip0_1922_1568)"><path d="M15.2 7.2H8.8V.8a.8.8 0 00-1.6 0v6.4H.8a.8.8 0 000 1.6h6.4v6.4a.8.8 0 001.6 0V8.8h6.4a.8.8 0 000-1.6z"/></g><defs><clipPath id="awclip0_1922_1568"><path d="M0 0h16v16H0z"/></clipPath></defs></svg><svg viewBox="0 0 25 32" id="icon-profile" xmlns="http://www.w3.org/2000/svg"><path d="M22.678 19.943a12.5 12.5 0 00-4.085-3.779 9.242 9.242 0 003.093-6.902C21.686 4.155 17.531 0 12.424 0S3.162 4.155 3.162 9.262a9.242 9.242 0 003.092 6.902 12.5 12.5 0 00-4.085 3.779A12.322 12.322 0 000 26.936V32h24.848v-5.064c0-2.505-.75-4.923-2.17-6.993zM5.101 9.263c0-4.039 3.285-7.324 7.323-7.324s7.323 3.285 7.323 7.323-3.285 7.323-7.323 7.323S5.1 13.3 5.1 9.262zM1.939 30.06v-3.125c0-4.109 2.38-7.794 6.101-9.516a9.205 9.205 0 004.384 1.104c1.585 0 3.078-.4 4.383-1.104 3.721 1.722 6.101 5.407 6.101 9.516v3.125H1.94z"/></svg><svg viewBox="0 0 80 49" id="icon-redbull" xmlns="http://www.w3.org/2000/svg"><g opacity=".5" clip-path="url(#ayclip0_81_80)"><path d="M38.956 25.281c.07.014.141.026.212.039l-.212-.039zm.578.096c.082.013.165.023.247.034l-.247-.034zm.611.073c.08.008.16.015.241.02l-.24-.02zm.327.027l.204.012-.204-.012zm.303.017l.241.01-.241-.01zm.321.01c.18.005.36.005.54 0h-.54zm.625 0l.251-.01-.25.01zm.33-.014l.216-.013-.216.013zm.291-.019c.08-.006.158-.012.236-.02l-.236.02zm.639-.064c.06-.007.12-.015.18-.025l-.18.025zM54.018 5.16a2.264 2.264 0 00-.2-.095l.2.095zm-.656-.235a2.565 2.565 0 00-.253-.039l.253.039zm15.71 12.235l-.046.006.045-.006zm-58.644-3.555a2.412 2.412 0 01-.644-.972c-.107-.31-.246-.697-.246-1.027a3.543 3.543 0 011.81-3.096c.425-.232.582-.39.647-.472a.307.307 0 00-.098-.025c-1.273 0-1.925-.493-2.245-.91-.304-.391-.459-.895-.459-1.447 0-.267.038-.548.113-.834.358-.59.699-.429.908-.126.133.189 1.043.833 2.166.935.817.077 1.257.476 1.486.794.264.369.365.813.365 1.19 0 .155-.017.3-.05.429-.124.498-.65.946-1.382 1.518l-.415.344c-.608.53-.943 1.121-.943 1.622a1.023 1.023 0 00.128.492c.271.46 1.04.747 2.154.358.515-.178 1.506-.8 2.111-1.399.713-.709 1.663-.879 2.579-.95.794-.06 1.283-.255 1.627-.64 1.017-1.144 1.996-1.304 2.912-1.372.35-.027.37-.052.415-.114.505-.67 1.024-1.025 1.49-1.232.354-.157.678-.23.944-.287l.322-.08.08-.028c.51-.163.905-.299 1.943-.998l.044-.028.044-.028.044-.026.045-.025.044-.023h.002l.043-.023h.002l.043-.022h.002l.044-.02.002-.002.044-.018h.002l.044-.019h.003l.044-.017.002-.001.044-.016.046-.015.003-.001.044-.014h.003l.044-.013.003-.001.044-.012.003-.001.044-.01.004-.001.043-.01.004-.001.044-.01h.004l.044-.008h.004l.044-.008h.003l.044-.007h.004l.044-.006h.004l.043-.006h.005l.043-.004h.005l.043-.003h.005l.042-.003h.006l.042-.003h.053l.043-.001H29.647l.09.005.042.002h.006l.041.004h.006l.041.004h.006l.041.005h.007l.04.005.007.001.04.005.007.001.04.006.006.001.04.007.007.001.04.007.006.001.04.007.006.002c.062.011.123.025.183.04l.038.01.007.001c.06.016.12.032.179.05l.035.01.008.003c.117.037.23.078.339.122l.03.012.04.017A12.778 12.778 0 0140.78.014a13.404 13.404 0 011.172 0h.001A12.785 12.785 0 0151.59 5.09a3.883 3.883 0 011-.21l.01-.001.033-.002.034-.002H52.685l.033-.002H52.897l.035.001h.007l.035.002h.008l.035.003h.006l.036.003.007.001.035.003.006.001c.085.009.17.022.254.039l.037.007.005.002.036.008.005.001.037.01h.005l.038.01.004.002.038.01.004.002.037.011.004.002.038.012.004.001.04.014.04.014.002.001.038.015.002.001.04.016h.002c.067.03.134.06.2.096h.001l.04.022.039.022.04.024.038.025.04.025c.714.485 1.127.698 1.48.838.158.063.306.11.462.16l.082.029.325.079c.177.039.378.083.596.155.547.177 1.2.521 1.833 1.365.046.061.066.086.418.113.915.068 1.893.229 2.914 1.372.342.386.828.58 1.622.64.92.072 1.868.242 2.58.95.605.599 1.595 1.221 2.112 1.4 1.114.388 1.886.1 2.15-.358a.921.921 0 00.118-.316c.01-.058.016-.118.016-.177 0-.5-.335-1.091-.942-1.622l-.075-.063-.344-.28c-.73-.572-1.256-1.021-1.383-1.519a2.105 2.105 0 01.315-1.619c.23-.318.675-.716 1.487-.794 1.129-.102 2.035-.746 2.167-.935.212-.302.55-.465.907.126.075.287.113.567.113.835 0 .554-.155 1.055-.458 1.446-.322.417-.973.91-2.247.91a.3.3 0 00-.096.025c.063.082.22.24.646.472a3.547 3.547 0 011.813 3.097c0 .329-.138.716-.249 1.027a2.445 2.445 0 01-.641.971c-.527.488-1.404.871-2.865.784a7.98 7.98 0 01-.461-.042c-.038.736-.24 1.61-.525 2.05a.558.558 0 00-.103.278l.002.038c.009.003.648.38.648.38l.103.051s.06.029.068.035c.01-.003.221-.013.221-.013l.042-.006h.004c.4-.038 1.01-.233 1.27.49.068.192.11.359.148.506.08.303.147.527.413.732 0 0 .131-.113.28-.245.115-.101.228-.205.339-.311.185-.19.527-.093.774 0 .25.094.558.308.776.433.22.122.341.278.405.465.066.185.218.308.45.43.226.128.548.537.548 1.087 0 .085.01.157.033.234.016.05.039.103.07.163.313.632.061.95-.12 1.084-.245.183-.677.258-1.082.192l.003.104-.592-.079c-.23-.029-.532.03-.713.067l-.042.012a1.228 1.228 0 01-1.316-.618c-.158-.276-.404-.533-.525-.604a2.087 2.087 0 01-.775.079 1.855 1.855 0 01-1.009-.44 2.668 2.668 0 01-.177-.162 1.984 1.984 0 00-1.646-.564l-.259.046c-.533.096-1.2.219-1.816-.156a4.919 4.919 0 00-.59-.28c-.56-.243-1.138-.493-1.217-1.021-.013-.094-.115-.266-.199-.403a3.38 3.38 0 01-.216-.395 1.144 1.144 0 01-.107-.43 1.893 1.893 0 01-.76.037l-.243-.037c-.41-.07-1.266-.21-1.538-.111-.544.195-2.253.29-2.721.183l-.335-.072a4.1 4.1 0 01-.514.445c.343.019.645-.023.852.03l.43.113c.138-.04.474-.036.665-.019l.505.038.575.055c.277.056.572.175.521.717a1 1 0 01-.254.542c-.078.085-.378.52-.444.656l-.022.043c-.117.249-.29.477-.796.477-.064 0-.128.002-.192.008-.016.04-.057.117-.057.117-.114.258-.278.617-.593.825l-.083.06c-.253.18-.673.475-1.316.242l-.221-.078c-.561-.202-1.409-.504-1.837-.738l-.06-.033c-.398-.217-.487-.26-.632-.24l-.08.012c-.306.043-.882.12-1.28-.539l-.037-.057a12.797 12.797 0 01-8.005 5.04l-.014.004c-.112.02-.224.039-.337.057l-.042.006-.154.022c-.06.01-.12.017-.18.025l-.11.014-.173.018-.12.013-.235.02-.075.005c-.072.005-.143.01-.216.013l-.08.004-.25.01-.086.001c-.18.005-.36.005-.539 0l-.08-.001-.242-.01-.098-.005-.204-.012-.086-.006-.24-.02-.12-.012-.157-.017-.088-.01a8.291 8.291 0 01-.247-.035l-.1-.014-.175-.028-.091-.015-.212-.038-.153-.03-.078-.017c-.104-.022-.209-.045-.313-.07l-.027-.006-.163-.04-.084-.021a14.973 14.973 0 01-.29-.079l-.035-.01a12.801 12.801 0 01-6.983-5.028l-.218.33c-.395.66-.97.582-1.28.54l-.08-.013c-.144-.02-.236.023-.63.24l-.064.034c-.426.233-1.271.535-1.835.737l-.222.079c-.642.233-1.064-.064-1.311-.243l-.087-.06c-.314-.207-.477-.567-.593-.825 0 0-.038-.076-.056-.117a1.852 1.852 0 00-.193-.007c-.5 0-.68-.229-.794-.478l-.02-.042a5.137 5.137 0 00-.448-.657.986.986 0 01-.253-.542c-.052-.541.246-.66.521-.716l.576-.055.505-.038c.188-.017.524-.022.661.018l.431-.113c.206-.053.51-.01.85-.03a4.883 4.883 0 01-.512-.445l-.335.072c-.47.107-2.176.013-2.716-.182-.274-.1-1.13.04-1.54.11l-.247.038a1.886 1.886 0 01-.755-.038c-.013.308-.18.588-.324.825-.084.137-.19.31-.202.403-.074.528-.659.778-1.216 1.021a4.975 4.975 0 00-.589.28c-.611.375-1.28.253-1.816.156l-.26-.046a1.986 1.986 0 00-1.645.564c-.801.797-1.598.622-1.961.523-.12.071-.368.328-.525.605a1.23 1.23 0 01-1.317.617l-.044-.011c-.179-.038-.477-.096-.706-.068l-.596.08.007-.105c-.408.066-.84-.01-1.086-.192-.18-.134-.434-.452-.114-1.083a.819.819 0 00.099-.397c0-.551.32-.96.544-1.087.235-.123.39-.245.453-.431a.81.81 0 01.402-.465c.218-.124.528-.339.776-.433.248-.093.59-.189.777 0 .188.183.618.556.618.556.396-.305.358-.655.563-1.238.256-.723.869-.528 1.267-.49l.045.006s.215.01.221.013l.071-.035.1-.052.649-.38c.003-.007.003-.018.003-.037a.55.55 0 00-.103-.277c-.286-.441-.488-1.315-.524-2.05a7.521 7.521 0 01-.3.03c-1.557.124-2.482-.269-3.023-.774z"/><path d="M14.259 13.812s-.13 1.252.436 2.355c0 0 .419.592-.016.972l-.866.502s-.117.087-.503.057c0 0-.534-.132-.712.104 0 0-.155.452-.35.825 0 0-.394.903-1.046 1.193 0 0-.52.119-.678.568 0 0-.168.316-.504.33 0 0-.25.08-.416.636 0 0-.09.36-.086.636 0 0 .427-.056.706.044 0 0 .684.23.99-.333 0 0 .592-1.01 1.03-.858 0 0 .881.294 1.504-.347 0 0 .854-.931 2.061-.74 0 0 1.36.275 1.784-.038 0 0 .858-.447 1.18-.558 0 0 .393-.115.434-.545 0 0 .24-.605.413-.806l-.648-.007s-.588.985-1.586 1.282c0 0-.545.217-1.64.04 0 0-1.574-.355-2.955 1.133 0 0-.19.272-.459.163 0 0 .764-1.298 2.44-1.605 0 0 .548-.117 1.006-.043 0 0 2.257.066 3.304-2.15 0 0-.113-1.89.387-2.337 0 0 .193-.06.154.306 0 0-.343 1.98.302 2.363 0 0 .374.294 1.067.185 0 0 1.05-.25 1.904-.104 0 0 1.313.31 2.441.167 0 0-.293-.448-.235-.983 0 0 .162-.382.347-.136 0 0 .434 1.43 1.62 1.86 0 0 1.06.384 1.042 1.724 0 0-.162.184-1.567.682 0 0-.525.165-.694-.226 0 0-.677-1.446-1.267-1.402l-1.107.09s-.378.097-.1.398c0 0 .38.503.534.803 0 0 .045.257.402.202 0 0 .494-.244.772.673 0 0 .255.458.687.605 0 0 .404.134.783-.078 0 0 1.829-.67 2.147-.907 0 0 .396-.22.71-.114 0 0 .548.13.774-.302l.567-.874s.124-.215.107-.486c0 0 .051-.268-.176-.54 0 0-.214-.226-.247-.39l-.404-.947s-.164-.253-.344-.357l-.54.04s.372.946.644 1.331c0 0 .367.561.349.918 0 0-.024.25-.123.354 0 0-.125.199-.175.295 0 0-.163.354-.296.433 0 0-.23.135-.285.14 0 0-.1.028-.026-.15 0 0 .302-.634.282-.974 0 0 .059-.353-.192-.56 0 0-.588-.925-.672-1.202 0 0-.184-.37-.282-.433 0 0-.206-.27.126-.395 0 0 .825-.186.973-.287 0 0 .397-.12.655-.944 0 0 .355-.962.35-1.556 0 0 .696 1.339-.414 2.7 0 0 .878.258 1.242 0 0 0 1.094-.16 1.305-.218 0 0 .275-.067.118.128 0 0-.33.468-.358.775 0 0-.021.244-.222.387 0 0-.622.434-.676.85 0 0-.133.4.142.305 0 0 .372-.172.503.001 0 0 .039.018-.105.179 0 0-.373.324-.401.759 0 0 .069.502.2.663 0 0 .17.233.435.16 0 0 .07-.058.198-.02 0 0 .131 0 .475-.118 0 0 .52-.143.695-.204 0 0 .662-.237.99-.22 0 0 .212-.024.483.03 0 0 .829.094 1.381-.515 0 0 .42-.332.563-.01 0 0 1.009 1.35 2.641.995 0 0-1.299-.533-1.636-1.259 0 0-.044-.616-.725-1.47 0 0-.208-.285-.007-.359 0 0 .116-.086.37.168 0 0 .646.618.88 1.184 0 0 .802 1.21 1.959.803 0 0-.909-.35-1.335-1.001 0 0-.264-.882-1.15-1.538 0 0-.035-.991-.449-1.548 0 0-.21-.93-.268-1.148 0 0-.223-.818-.221-1.044 0 0 .074-1.067-.617-1.899 0 0-.462-.889-1.183-1.508 0 0-.547-.675-.954-1.088 0 0-.535-.626-1.703-1.443 0 0-.529-.383-.916-.795 0 0-2.06-1.479-3.548-.293 0 0-1.027.697-1.886.913 0 0-1.763.205-2.515 1.426 0 0-.065.225-.776.311 0 0-1.561-.188-2.71 1.344 0 0-.535.52-1.592.646 0 0-1.725-.176-2.848 1.143 0 0-2.833 2.464-4.522.866 0 0-.875-.826.125-2.323 0 0 .635-.764 1.718-1.562 0 0 .878-.617.476-1.577 0 0-.213-.927-1.53-.951 0 0-1.651-.318-2.32-1.15 0 0-.745 2.62 2.182 2.576 0 0 .763.112.497.716 0 0-.374.517-.876.705 0 0-.883.385-1.282 1.668 0 0-.892 2.245 1.284 3.111.837.289 1.804.204 2.666.054zm-4.19 5.29a.534.534 0 01.445-.117c.347.074.137.373.137.373-.14.262-.598.703-.598.703-.407.304-.73-.058-.73-.058-.301-.297.091-.44.091-.44.229-.092.656-.46.656-.46zm-.872 1.404s.126.093.059.277c0 0-.323.882-.308 1.178 0 0-.715.127-.814-.225 0 0-.02-.135.097-.332 0 0 .121-.184.153-.52 0 0-.01-.846.539-.622.109.06.195.15.274.244zm25.205-1.79c-.126-.004-.158-.05-.142-.188.084-.384.393-.55.393-.55.58-.345.65 0 .65 0 .106.617-.383.695-.383.695-.097.034-.518.043-.518.043zm1.749-2.756c.01-.289.035-.932-.26-1.162-.109-.086-.54-.557-.54-.557-.065-.114-.115-.12-.115-.12-.09-.01-.204.197-.204.197-.306.59-.612.518-.612.518-.003-.108.07-.228.07-.228.148-.287.294-.574.44-.862.044-.102.085-.239.085-.239.296-.457.575-.109.575-.109.124.242.788 1.032.788 1.032a.701.701 0 01.161.362c.154 1.081-.388 1.168-.388 1.168zm-6.112-6.526c-.09-.163-.053-.329.038-.487.205-.314.397.029.397.029.71.985.186 2.461.186 2.461-.073-1.358-.62-2.003-.62-2.003zm38.066 4.378s.13 1.252-.436 2.355c0 0-.42.592.016.972l.866.502s.116.087.503.057c0 0 .534-.132.712.104 0 0 .155.452.349.825 0 0 .395.903 1.047 1.193 0 0 .52.119.677.568 0 0 .169.316.504.33 0 0 .251.08.417.636 0 0 .09.36.086.636 0 0-.428-.056-.706.044 0 0-.685.23-.99-.333 0 0-.592-1.01-1.03-.858 0 0-.882.294-1.504-.347 0 0-.854-.931-2.062-.74 0 0-1.359.275-1.783-.038 0 0-.858-.447-1.18-.558 0 0-.394-.115-.434-.545 0 0-.24-.605-.413-.806l.648-.007s.587.985 1.585 1.282c0 0 .546.217 1.641.04 0 0 1.574-.355 2.955 1.133 0 0 .189.272.458.163 0 0-.763-1.298-2.44-1.605 0 0-.547-.117-1.005-.043 0 0-2.258.066-3.305-2.15 0 0 .114-1.89-.386-2.337 0 0-.193-.06-.155.306 0 0 .343 1.98-.301 2.363 0 0-.375.294-1.068.185 0 0-1.05-.25-1.904-.104 0 0-1.313.31-2.441.167 0 0 .293-.448.236-.983 0 0-.162-.382-.348-.136 0 0-.434 1.43-1.62 1.86 0 0-1.06.384-1.042 1.724 0 0 .162.184 1.567.682 0 0 .526.165.695-.226 0 0 .677-1.446 1.267-1.402l1.107.09s.378.097.1.398c0 0-.38.503-.535.803 0 0-.044.257-.4.202 0 0-.495-.244-.774.673 0 0-.255.458-.686.605 0 0-.405.134-.783-.078 0 0-1.829-.67-2.147-.907 0 0-.396-.22-.71-.114 0 0-.547.13-.773-.302l-.567-.874s-.125-.215-.108-.486c0 0-.051-.268.176-.54 0 0 .214-.226.248-.39l.404-.947s.164-.253.343-.357l.54.04s-.372.946-.644 1.331c0 0-.368.561-.349.918 0 0 .025.25.123.354 0 0 .125.199.175.295 0 0 .163.354.296.433 0 0 .23.135.285.14 0 0 .1.028.026-.15 0 0-.302-.634-.283-.974 0 0-.058-.353.192-.56 0 0 .588-.925.673-1.202 0 0 .184-.37.282-.433 0 0 .205-.27-.126-.395 0 0-.825-.186-.973-.287 0 0-.397-.12-.655-.944 0 0-.355-.962-.35-1.556 0 0-.696 1.339.414 2.7 0 0-.878.258-1.242 0 0 0-1.093-.16-1.305-.218 0 0-.275-.067-.118.128 0 0 .33.468.358.775 0 0 .02.244.222.387 0 0 .622.434.676.85 0 0 .133.4-.142.305 0 0-.372-.172-.503.001 0 0-.039.018.105.179 0 0 .373.324.4.759 0 0-.068.502-.2.663 0 0-.168.233-.434.16 0 0-.07-.058-.199-.02 0 0-.13 0-.474-.118 0 0-.521-.143-.695-.204 0 0-.663-.237-.99-.22 0 0-.213-.024-.484.03 0 0-.829.094-1.381-.515 0 0-.42-.332-.563-.01 0 0-1.009 1.35-2.641.995 0 0 1.3-.533 1.636-1.259 0 0 .044-.616.725-1.47 0 0 .208-.285.007-.359 0 0-.116-.086-.37.168 0 0-.645.618-.879 1.184 0 0-.803 1.21-1.96.803 0 0 .908-.35 1.335-1.001 0 0 .264-.882 1.151-1.538 0 0 .035-.991.448-1.548 0 0 .212-.93.268-1.148 0 0 .223-.818.221-1.044 0 0-.074-1.067.617-1.899 0 0 .462-.889 1.183-1.508 0 0 .547-.675.954-1.088 0 0 .536-.626 1.704-1.443 0 0 .528-.383.915-.795 0 0 2.06-1.479 3.548-.293 0 0 1.028.697 1.886.913 0 0 1.764.205 2.515 1.426 0 0 .065.225.775.311 0 0 1.562-.188 2.712 1.344 0 0 .534.52 1.592.646 0 0 1.723-.176 2.846 1.143 0 0 2.833 2.464 4.523.866 0 0 .874-.826-.126-2.323 0 0-.634-.764-1.717-1.562 0 0-.879-.617-.476-1.577 0 0 .213-.927 1.53-.951 0 0 1.651-.318 2.319-1.15 0 0 .746 2.62-2.181 2.576 0 0-.764.112-.497.716 0 0 .374.517.876.705 0 0 .883.385 1.282 1.668 0 0 .892 2.245-1.285 3.111-.836.289-1.803.204-2.665.054zm4.189 5.29a.534.534 0 00-.444-.117c-.347.074-.137.373-.137.373.14.262.598.703.598.703.407.304.73-.058.73-.058.3-.297-.092-.44-.092-.44-.228-.092-.655-.46-.655-.46zm.872 1.404s-.126.093-.059.277c0 0 .324.882.309 1.178 0 0 .715.127.814-.225 0 0 .019-.135-.098-.332 0 0-.12-.184-.152-.52 0 0 .01-.846-.539-.622-.11.06-.195.15-.275.244zm-25.205-1.79c.126-.004.159-.05.143-.188a.867.867 0 00-.393-.55c-.58-.345-.65 0-.65 0-.106.617.382.695.382.695.098.034.518.043.518.043zm-1.748-2.756c-.01-.289-.036-.932.26-1.162.11-.086.54-.557.54-.557.065-.114.115-.12.115-.12.088-.01.204.197.204.197.306.59.612.518.612.518a.506.506 0 00-.07-.228 99.69 99.69 0 01-.44-.862 2.663 2.663 0 01-.086-.239c-.296-.457-.574-.109-.574-.109-.125.242-.788 1.032-.788 1.032a.701.701 0 00-.162.362c-.153 1.081.39 1.168.39 1.168zm6.111-6.526c.091-.163.054-.329-.038-.487-.205-.314-.396.029-.396.029-.71.985-.186 2.461-.186 2.461.072-1.358.62-2.003.62-2.003zM.013 29.86v18.08h3.659V33.31h1.723s2.69-.12 2.69 2.322c0 2.443-2.388 2.382-2.388 2.382H4.82v4.161l3.66 5.766h4.292l-5.11-7.393s4.203-.362 4.203-4.916c0-4.552-3.175-5.772-7.407-5.772H.013zm53.488 8.456s1.602-1.242 1.602-3.598-1.717-4.48-5.37-4.48h-6.12V47.94h7.538s5.402-.06 5.402-4.93c0-2.826-1.1-3.908-3.052-4.694zm-2.949 6.543h-3.28V33.325h1.753s2.383-.179 2.383 1.894-1.895 1.89-1.895 1.89H48.42v3.108h2.13c.56 0 2.338.27 2.338 2.312s-2.337 2.33-2.337 2.33zM76.57 29.504h3.417V47.94H76.57V29.504zm-5.88 0h3.462V47.94H70.69V29.504zM57.583 37.14h3.506v6.181s.122 2.082 2.087 2.082c1.965 0 1.936-2.082 1.936-2.082V37.17h3.536v6.364s.454 4.975-5.382 4.975c-5.835 0-5.683-4.372-5.683-5.156V37.14zM34.33 29.504v8.36s-1.693-1.296-3.63-1.296c-1.933 0-5.199 1.357-5.199 5.638 0 4.282 2.782 5.91 5.17 5.91 2.39 0 3.72-1.568 3.72-1.568v1.393h3.446V29.504h-3.507zM31.671 45.1c-.183 0-2.45.03-2.45-2.743 0-2.775 2.479-2.865 2.479-2.865s2.782.09 2.782 2.804-2.63 2.804-2.812 2.804zm-13.063-8.533c5.866 0 5.624 5.7 5.624 5.7v.904H16.28c0 1.296 1.088 2.412 2.57 2.412 1.481 0 2.237-1.417 2.237-1.417l2.812 1.386c-1.3 1.961-3.053 2.744-5.019 2.744-6.108 0-6.228-5.065-6.228-5.698 0-.634.09-6.03 5.956-6.03zM16.34 41.09h4.355s-.182-2.05-2.147-2.05c-1.965 0-2.208 2.05-2.208 2.05z"/></g><defs><clipPath id="ayclip0_81_80"><path d="M0 0h80v48.508H0z"/></clipPath></defs></svg><svg viewBox="0 0 50 50" id="icon-return" xmlns="http://www.w3.org/2000/svg"><path d="M33.691 50H11.72C5.257 50 0 44.743 0 38.281V11.72C0 5.257 5.257 0 11.719 0H38.28C44.743 0 50 5.257 50 11.719v17.285c-.103 2.591-3.804 2.59-3.906 0V11.719c0-4.308-3.505-7.813-7.813-7.813H11.72c-4.308 0-7.813 3.505-7.813 7.813V38.28c0 4.308 3.505 7.813 7.813 7.813H33.69c2.592.103 2.59 3.804 0 3.906zm-1.757-39.258A1.953 1.953 0 0029.98 8.79h-9.96c-2.592.103-2.59 3.804 0 3.906h9.96a1.953 1.953 0 001.954-1.953zm-.586 32.13c-.499 0-.998-.19-1.379-.57l-3.25-3.24A5.802 5.802 0 0125 34.928c0-1.563.61-3.032 1.718-4.136l3.266-3.186a1.953 1.953 0 112.727 2.797l-3.241 3.161c-.749.723-.746 2.013.006 2.733l3.25 3.238c1.235 1.224.338 3.347-1.378 3.337zm16.18 4.618c5.313-5.334 1.478-14.597-6.073-14.58h-6.982c-2.592.103-2.59 3.804 0 3.906h6.982a4.644 4.644 0 014.639 4.64c0 2.557-2.06 4.638-4.59 4.638-2.59.102-2.591 3.803 0 3.906a8.415 8.415 0 006.025-2.51z"/></svg><svg viewBox="0 0 21 20" id="icon-search" xmlns="http://www.w3.org/2000/svg"><path d="M9.02 16.472C4.477 16.472.78 12.777.78 8.236S4.476 0 9.02 0c4.545 0 8.242 3.695 8.242 8.236s-3.697 8.236-8.242 8.236zm0-14.91c-3.682 0-6.679 2.994-6.679 6.674s2.997 6.675 6.68 6.675 6.68-2.995 6.68-6.675c0-3.68-2.997-6.675-6.68-6.675zm11.53 18.21a.78.78 0 000-1.105l-3.496-3.493a.782.782 0 00-1.105 1.104l3.496 3.493a.779.779 0 001.105 0z"/></svg><svg viewBox="0 0 20 20" id="icon-search-green" xmlns="http://www.w3.org/2000/svg"><path d="M8.242 16.472C3.697 16.472 0 12.777 0 8.236S3.697 0 8.242 0c4.545 0 8.242 3.695 8.242 8.236s-3.697 8.236-8.242 8.236zm0-14.91c-3.683 0-6.68 2.994-6.68 6.674s2.997 6.675 6.68 6.675 6.68-2.995 6.68-6.675c0-3.68-2.997-6.675-6.68-6.675zm11.53 18.21a.78.78 0 000-1.105l-3.497-3.493a.782.782 0 00-1.105 1.104l3.496 3.493a.779.779 0 001.105 0z"/></svg><svg viewBox="0 0 50 50" id="icon-speed-delivery" xmlns="http://www.w3.org/2000/svg"><path d="M48.512 34.392a1.463 1.463 0 001.383-1.46c0-4.216-3.384-7.518-7.703-7.518h-1.428l-1.745-8.281a4.76 4.76 0 002.865-4.363 4.756 4.756 0 00-4.748-4.754h-6.75c-.808 0-1.463.656-1.463 1.465v1.824h-3.596a1.464 1.464 0 000 2.93h3.596v1.824c0 .809.655 1.465 1.463 1.465h.65a8.187 8.187 0 00-1.944 5.302v8.336a.077.077 0 01-.077.078h-5.91a.078.078 0 01-.075-.056l-1.593-5.39a3.017 3.017 0 002.233-2.91c0-3.307-2.687-5.997-5.989-5.997H4.499A4.507 4.507 0 000 21.391a4.509 4.509 0 003.871 4.46 11.307 11.307 0 00-3.779 8.441v4.561c0 .809.656 1.465 1.464 1.465H2.82c.682 3.402 3.689 5.973 7.284 5.973 3.596 0 6.603-2.57 7.284-5.973h17.898c.681 3.402 3.688 5.973 7.284 5.973 4.096 0 7.429-3.336 7.429-7.438a7.405 7.405 0 00-1.488-4.46zm-1.783-2.926h-3.294a7.425 7.425 0 00-2.395.107v-3.23h1.152c2.143 0 3.914 1.29 4.537 3.123zm-14.88-20.52h5.287a1.825 1.825 0 010 3.648h-5.287v-3.648zm-8.744 23.223h5.91a3.009 3.009 0 003.003-3.007v-8.336a5.297 5.297 0 014.123-5.16l1.974 9.366v5.873a7.452 7.452 0 00-2.828 4.483H20.74c-.683-5.256-5.023-9.188-10.44-9.188-2.416 0-4.585.79-6.295 2.146 1.413-2.646 4.2-4.45 7.4-4.45h7.01l1.809 6.12a3.021 3.021 0 002.88 2.153zM3.137 37.388c.256-1.558.922-2.964 1.94-4.053 1.329-1.422 3.184-2.205 5.223-2.205 3.774 0 6.823 2.652 7.477 6.258H3.137zM4.5 22.966a1.575 1.575 0 010-3.15H17.68a3.068 3.068 0 013.063 3.067c-.013.06-.11.1-.289.083H4.5zm5.606 20.396a4.51 4.51 0 01-4.258-3.044h8.516a4.51 4.51 0 01-4.258 3.044zm32.466 0a4.511 4.511 0 01-4.503-4.51 4.511 4.511 0 014.503-4.508 4.511 4.511 0 014.503 4.509 4.511 4.511 0 01-4.503 4.509z"/><path d="M42.57 40.328a1.474 1.474 0 10-.001-2.948 1.474 1.474 0 00.002 2.947zM1.524 12.64h13.122a1.464 1.464 0 000-2.929H1.524a1.464 1.464 0 000 2.93zM6.385 6.638H19.62a1.464 1.464 0 000-2.93H6.385a1.464 1.464 0 000 2.93z"/></svg><svg viewBox="0 0 16 16" id="icon-star" xmlns="http://www.w3.org/2000/svg"><path d="M.023 5.796a.469.469 0 01.378-.32l4.96-.72L7.58.26a.469.469 0 01.84 0l2.219 4.495 4.96.72a.469.469 0 01.26.8l-3.59 3.499.848 4.94a.469.469 0 01-.68.494L8 12.877l-4.436 2.332a.469.469 0 01-.68-.494l.847-4.94-3.59-3.499a.469.469 0 01-.118-.48z"/></svg><svg viewBox="0 0 23 22" id="icon-tel" xmlns="http://www.w3.org/2000/svg"><path d="M21.463 16.517l-3.194-3.195a2.276 2.276 0 00-1.617-.662c-.64 0-1.242.251-1.698.707L13.71 14.61c-.966-.537-2.25-1.275-3.583-2.608-1.332-1.332-2.07-2.613-2.61-3.584l1.245-1.244c.925-.927.944-2.414.042-3.315L5.61.665A2.266 2.266 0 003.993 0a2.39 2.39 0 00-1.669.678C2.05.898.674 2.114.161 4.62c-.718 3.507.932 6.881 5.695 11.647C11.178 21.587 15.721 22 16.986 22c.264 0 .423-.016.465-.021 2.482-.291 3.37-1.393 4.02-2.198.84-1.043.837-2.415-.008-3.264zm-1.06 2.403c-.61.757-1.186 1.471-3.111 1.697-.001 0-.107.012-.306.012-1.132 0-5.211-.385-10.16-5.332C2.433 10.902.891 7.888 1.504 4.895c.448-2.186 1.635-3.115 1.682-3.15l.04-.03.037-.036a1.03 1.03 0 01.73-.308c.248 0 .478.093.647.263l3.194 3.194c.368.368.348.985-.043 1.377L6.384 7.611l-.023.025c-.367.404-.324.95-.122 1.305.583 1.052 1.382 2.493 2.918 4.03 1.532 1.532 2.97 2.33 4.02 2.911.105.06.321.158.593.158.32 0 .615-.135.832-.383l1.321-1.32c.198-.197.456-.306.728-.306.25 0 .48.093.649.261l3.192 3.193c.405.407.238 1.03-.09 1.435zM13.388 3.36c1.178.135 2.566.849 3.534 1.818.978.977 1.693 2.379 1.822 3.57a.686.686 0 101.364-.148c-.164-1.506-1.013-3.188-2.216-4.392-1.192-1.192-2.858-2.04-4.347-2.21a.686.686 0 10-.157 1.362zM12.748 6.232c.637.073 1.519.546 2.096 1.124.583.582 1.056 1.473 1.126 2.117a.686.686 0 001.364-.148c-.12-1.1-.85-2.268-1.52-2.939-.665-.665-1.822-1.391-2.91-1.516a.685.685 0 10-.156 1.362z"/></svg><svg viewBox="0 0 32 32" id="icon-telegram" xmlns="http://www.w3.org/2000/svg"><g clip-path="url(#bfclip0_1922_1577)"><path d="M12.556 20.241l-.53 7.446c.758 0 1.086-.326 1.48-.716l3.55-3.394 7.357 5.388c1.35.752 2.3.356 2.664-1.24l4.83-22.63.001-.002c.428-1.994-.721-2.774-2.036-2.285L1.485 13.676c-1.937.752-1.908 1.832-.329 2.321l7.257 2.258L25.271 7.707c.793-.526 1.514-.235.921.29L12.556 20.241z"/></g><defs><clipPath id="bfclip0_1922_1577"><path d="M0 0h32v32H0z"/></clipPath></defs></svg><svg viewBox="0 0 93 29" id="icon-visa" xmlns="http://www.w3.org/2000/svg"><path d="M37.109.474l-4.71 27.58h7.533L44.646.475h-7.537zM26.083.505l-7.378 18.81-.787-2.841C16.463 13.052 12.332 8.138 7.483 5.04l6.746 23.001 7.971-.013L34.063.498l-7.98.007z"/><path d="M15.058 2.479C14.62.799 13.351.298 11.776.238H.096L0 .787c9.089 2.2 15.103 7.501 17.598 13.875L15.058 2.48zM59.913 5.761c2.465-.038 4.251.5 5.638 1.056l.68.319 1.02-5.978C65.759.6 63.42 0 60.502 0c-7.444 0-12.69 3.741-12.731 9.102-.049 3.961 3.737 6.173 6.597 7.494 2.935 1.353 3.92 2.213 3.906 3.422-.023 1.846-2.34 2.693-4.505 2.693-3.016 0-4.618-.416-7.093-1.444l-.97-.441-1.06 6.173c1.763.771 5.016 1.434 8.393 1.47 7.919 0 13.065-3.697 13.119-9.426.033-3.134-1.976-5.525-6.33-7.487-2.635-1.28-4.247-2.131-4.232-3.422 0-1.147 1.368-2.373 4.317-2.373zM86.583.505h-5.82c-1.808 0-3.153.49-3.947 2.289L65.631 28.07h7.91s1.291-3.399 1.584-4.143c.866 0 8.552.012 9.647.012.224.962.918 4.131.918 4.131h6.988L86.583.505zm-9.29 17.777c.62-1.584 3-7.709 3-7.709-.04.076.615-1.595 1.004-2.633l.508 2.378 1.746 7.964h-6.258z"/></svg><svg viewBox="0 0 32 32" id="icon-youtube" xmlns="http://www.w3.org/2000/svg"><g clip-path="url(#bhclip0_1922_1579)"><path d="M31.292 7.905l.04.262c-.387-1.372-1.43-2.43-2.757-2.816l-.028-.007c-2.495-.677-12.534-.677-12.534-.677S6 4.653 3.48 5.344A4.059 4.059 0 00.703 8.14l-.007.028c-.932 4.868-.939 10.717.041 15.93l-.041-.265c.387 1.372 1.43 2.43 2.757 2.816l.028.007c2.492.678 12.534.678 12.534.678s10.012 0 12.533-.678a4.058 4.058 0 002.779-2.795l.006-.028c.424-2.264.667-4.87.667-7.53l-.001-.295L32 15.7a43.01 43.01 0 00-.708-7.795zM12.811 20.868v-9.724l8.354 4.87-8.354 4.854z"/></g><defs><clipPath id="bhclip0_1922_1579"><path d="M0 0h32v32H0z"/></clipPath></defs></svg><svg viewBox="0 0 55 60" id="logo" xmlns="http://www.w3.org/2000/svg"><path opacity=".2" d="M54.648 59.067c0-.512-11.474-.933-25.611-.933-14.138 0-25.612.421-25.612.933S14.9 60 29.037 60c14.17 0 25.611-.421 25.611-.933z"/><path d="M29.398 11.81c11.146 0 20.187 8.277 20.187 18.481v18.482H29.398c-11.145 0-20.186-8.278-20.186-18.482V11.81h20.186z"/><path opacity=".3" d="M46.692 20.78c-1.677 1.775-2.696 4.093-2.696 6.622 0 3.762 2.236 7.043 5.556 8.819v-5.93c0-3.461-1.019-6.712-2.86-9.512z"/><path d="M38.769 13.947c-3.157 1.655-5.26 4.756-5.26 8.338 0 5.297 4.7 9.601 10.487 9.601 2.038 0 3.945-.541 5.556-1.474v-.12c0-7.105-4.372-13.275-10.783-16.345z"/><path opacity=".5" d="M22.922 15.39c-5.195 0-9.962 1.656-13.71 4.456V30.32c0 10.205 9.04 18.482 20.186 18.482h9.666c3.518-3.552 5.655-8.247 5.655-13.425 0-11.046-9.764-19.986-21.797-19.986z"/><path d="M49.552 48.743l-20.154.03c-11.145 0-20.186-8.278-20.186-18.482V11.84l40.34 36.903z"/><path opacity=".3" d="M12.335 18.432c0 14.026 12.428 25.374 27.716 25.374 1.315 0 2.597-.09 3.846-.24L12.598 14.94a24.621 24.621 0 00-.263 3.492z"/><path opacity=".3" d="M49.552 48.773L9.376 11.99c4.734 6.471 10.192 13.033 15.748 18.45 4.34 4.215 16.866 13.636 24.428 18.332z"/><path opacity=".3" d="M22.395 23.88L9.212 11.84V30.32c0 8.157 5.786 15.08 13.775 17.519-3.419-3.161-5.523-7.495-5.523-12.251 0-4.515 1.874-8.609 4.931-11.71z"/><path opacity=".3" d="M40.347 40.345c-3.42 3.822-8.614 6.29-14.434 6.29-3.88 0-7.496-1.083-10.488-2.95 3.617 3.161 8.516 5.118 13.94 5.118h20.187v-.03l-9.205-8.428z"/><path opacity=".3" d="M10.395 22.887c0-2.98.56-5.87 1.611-8.519L9.212 11.84V30.32c0 10.204 9.04 18.482 20.186 18.482h20.187v-.03l-2.005-1.836a29.736 29.736 0 01-9.337 1.474c-15.387-.03-27.848-11.438-27.848-25.524z"/><path d="M49.224 52.355c1.413-.362 2.893.421 3.254 1.715.395 1.295-.46 2.65-1.907 2.98-1.413.361-2.893-.421-3.254-1.715-.362-1.295.493-2.62 1.907-2.98zm-.526-1.836c-2.532.632-4.044 2.98-3.354 5.297.657 2.318 3.255 3.702 5.786 3.07 2.532-.632 4.044-3.01 3.354-5.297-.658-2.318-3.255-3.672-5.787-3.07z"/><path opacity=".5" d="M52.05 56.177a2.821 2.821 0 01-1.446.903c-1.414.36-2.893-.422-3.255-1.716a2.298 2.298 0 01.888-2.498c-.395-.512-.724-1.084-1.052-1.656-1.578 1.024-2.367 2.86-1.841 4.666.657 2.317 3.255 3.702 5.786 3.07 1.184-.301 2.137-.963 2.762-1.836-.625-.301-1.25-.602-1.841-.933z"/><path d="M10.165 52.355c1.413-.332 2.893.451 3.255 1.745.361 1.295-.494 2.65-1.907 2.98-1.414.331-2.894-.451-3.255-1.746-.362-1.294.493-2.648 1.907-2.98zm-.526-1.837c-2.532.602-4.044 2.98-3.387 5.298.658 2.318 3.255 3.702 5.787 3.1 2.531-.602 4.044-2.98 3.419-5.297-.69-2.318-3.288-3.703-5.82-3.1z"/><path opacity=".5" d="M12.96 56.207a2.596 2.596 0 01-1.447.873c-1.414.33-2.893-.452-3.255-1.746-.263-.963.132-1.926.888-2.498-.395-.512-.723-1.084-1.02-1.656-1.577.993-2.4 2.83-1.873 4.636.657 2.317 3.254 3.702 5.786 3.1 1.184-.271 2.17-.963 2.762-1.836-.658-.241-1.25-.542-1.841-.873z"/><path d="M10.494 10.546c-.625 0-1.15-.482-1.15-1.054 0-2.468-.757-4.334-2.204-5.568-2.334-2.017-5.852-1.806-5.885-1.806-.624.06-1.183-.392-1.25-.964C-.06.582.434.071 1.059.011c.197 0 4.537-.301 7.628 2.317 1.972 1.656 2.959 4.064 2.959 7.134 0 .602-.494 1.084-1.151 1.084z"/></svg></svg>