<svg width="512" height="512" viewBox="0 0 512 512" fill="none" xmlns="http://www.w3.org/2000/svg">
<path opacity="0.2" d="M491.933 504.037C491.933 499.671 394.019 496.075 273.38 496.075C152.742 496.075 54.8281 499.671 54.8281 504.037C54.8281 508.404 152.742 512 273.38 512C394.299 512 491.933 508.404 491.933 504.037Z" fill="#5D5D5D"/>
<path d="M276.466 100.777C371.574 100.777 448.727 171.412 448.727 258.486V416.194H276.466C181.358 416.194 104.205 345.559 104.205 258.486V100.777H276.466Z" fill="#63A60F"/>
<path opacity="0.3" d="M424.038 177.32C409.729 192.474 401.032 212.252 401.032 233.828C401.032 265.934 420.11 293.932 448.446 309.086V258.486C448.446 228.947 439.749 201.207 424.038 177.32Z" fill="#63A60F"/>
<path d="M356.424 119.014C329.491 133.141 311.535 159.597 311.535 190.162C311.535 235.368 351.655 272.099 401.032 272.099C418.427 272.099 434.699 267.475 448.446 259.513V258.485C448.446 197.868 411.132 145.213 356.424 119.014Z" fill="#63A60F"/>
<path opacity="0.5" d="M221.197 131.335C176.869 131.335 136.188 145.462 104.205 169.35V258.735C104.205 345.809 181.358 416.444 276.466 416.444H358.949C388.968 386.135 407.204 346.065 407.204 301.887C407.204 207.621 323.88 131.335 221.197 131.335Z" fill="#EFF6E7"/>
<path d="M448.446 415.936L276.466 416.193C181.358 416.193 104.205 345.558 104.205 258.485V101.033L448.446 415.936Z" fill="#63A60F"/>
<path opacity="0.3" d="M130.858 157.285C130.858 276.979 236.908 373.813 367.366 373.813C378.588 373.813 389.53 373.042 400.191 371.758L133.103 127.49C131.7 137.25 130.858 147.267 130.858 157.285Z" fill="#63A60F"/>
<path opacity="0.3" d="M448.446 416.193L105.608 102.318C146.008 157.541 192.58 213.536 239.994 259.769C277.027 295.729 383.919 376.124 448.446 416.193Z" fill="#63A60F"/>
<path opacity="0.3" d="M216.708 203.775L104.205 101.033V258.742C104.205 328.349 153.583 387.426 221.758 408.231C192.58 381.261 174.624 344.274 174.624 303.691C174.624 265.163 190.616 230.231 216.708 203.775Z" fill="#63A60F"/>
<path opacity="0.3" d="M369.891 344.275C340.713 376.895 296.385 397.958 246.727 397.958C213.622 397.958 182.761 388.711 157.23 372.786C188.091 399.756 229.894 416.451 276.186 416.451H448.446V416.194L369.891 344.275Z" fill="#63A60F"/>
<path opacity="0.3" d="M114.305 195.299C114.305 169.87 119.075 145.212 128.052 122.609L104.205 101.033V258.742C104.205 345.815 181.358 416.45 276.466 416.45H448.727V416.193L431.613 400.525C406.643 408.745 379.991 413.111 351.935 413.111C220.635 412.854 114.305 315.507 114.305 195.299Z" fill="#EFF6E7"/>
<path d="M445.641 446.759C457.705 443.677 470.33 450.355 473.416 461.4C476.783 472.445 469.489 484.003 457.144 486.829C445.08 489.911 432.455 483.233 429.369 472.188C426.283 461.143 433.578 449.842 445.641 446.759ZM441.153 431.091C419.55 436.485 406.644 456.52 412.536 476.298C418.147 496.075 440.311 507.891 461.914 502.497C483.516 497.103 496.422 476.811 490.53 457.29C484.919 437.513 462.755 425.954 441.153 431.091Z" fill="#63A60F"/>
<path opacity="0.5" d="M469.766 479.376C466.68 482.972 462.472 485.797 457.422 487.081C445.358 490.164 432.733 483.485 429.647 472.441C427.402 464.221 430.488 456.002 437.222 451.122C433.855 446.755 431.049 441.875 428.244 436.995C414.777 445.728 408.044 461.396 412.533 476.807C418.144 496.585 440.308 508.4 461.911 503.006C472.01 500.438 480.147 494.787 485.477 487.338C480.147 484.77 474.816 482.201 469.766 479.376Z" fill="#63A60F"/>
<path d="M112.338 446.76C124.402 443.934 137.027 450.612 140.113 461.657C143.199 472.702 135.905 484.26 123.841 487.086C111.777 489.911 99.1523 483.233 96.0662 472.188C92.9801 461.143 100.275 449.585 112.338 446.76ZM107.85 431.091C86.2468 436.229 73.3413 456.52 78.9524 476.298C84.5635 496.075 106.727 507.891 128.33 502.754C149.933 497.617 162.838 477.325 157.508 457.547C151.616 437.77 129.452 425.954 107.85 431.091Z" fill="#63A60F"/>
<path opacity="0.5" d="M136.189 479.633C133.103 483.229 128.895 486.055 123.845 487.082C111.781 489.907 99.1562 483.229 96.07 472.184C93.8256 463.965 97.1923 455.746 103.645 450.866C100.278 446.499 97.4728 441.619 94.9478 436.739C81.4812 445.215 74.4673 460.883 78.9562 476.294C84.5673 496.072 106.731 507.887 128.334 502.75C138.434 500.438 146.85 494.531 151.9 487.082C146.289 485.027 141.239 482.459 136.189 479.633Z" fill="#63A60F"/>
<path d="M115.147 89.9887C109.817 89.9887 105.328 85.879 105.328 80.9988C105.328 59.9367 98.8751 44.0118 86.5307 33.4808C66.6113 16.2715 36.5919 18.0695 36.3113 18.0695C30.9808 18.5832 26.2114 14.7304 25.6503 9.8502C25.0891 4.96997 29.2975 0.603447 34.628 0.0897385C36.3113 0.0897385 73.3446 -2.4788 99.7167 19.8675C116.55 33.9945 124.967 54.5428 124.967 80.7419C124.967 85.879 120.758 89.9887 115.147 89.9887Z" fill="#63A60F"/>
</svg>
